<?xml version="1.0" standalone="no"?>
<!DOCTYPE svg PUBLIC "-//W3C//DTD SVG 20010904//EN"
 "http://www.w3.org/TR/2001/REC-SVG-20010904/DTD/svg10.dtd">
<svg id="svg" version="1.1" xmlns="http://www.w3.org/2000/svg" xmlns:xlink="http://www.w3.org/1999/xlink" width="20" height="20" viewBox="0, 0, 400,400"><g id="svgg"><path id="path0" d="M106.900 26.580 C 106.184 26.900,105.600 26.986,105.600 26.771 C 105.600 26.555,104.619 26.412,103.414 26.451 C 102.212 26.490,101.314 26.661,101.419 26.831 C 101.524 27.001,100.434 27.074,98.996 26.993 C 97.056 26.885,96.451 26.970,96.650 27.323 C 96.836 27.654,96.753 27.647,96.379 27.300 C 96.082 27.025,95.651 26.803,95.420 26.806 C 95.189 26.809,95.240 26.965,95.534 27.151 C 95.940 27.408,95.868 27.541,95.234 27.707 C 94.775 27.827,94.400 27.762,94.400 27.563 C 94.400 27.363,94.201 27.200,93.957 27.200 C 93.711 27.200,93.626 27.491,93.766 27.857 C 93.984 28.423,93.929 28.439,93.366 27.972 C 92.810 27.510,92.638 27.533,92.204 28.127 C 91.766 28.726,91.662 28.739,91.462 28.218 C 91.330 27.873,90.968 27.714,90.617 27.849 C 90.280 27.978,90.086 28.215,90.185 28.375 C 90.284 28.536,90.111 28.667,89.800 28.667 C 89.489 28.667,89.345 28.489,89.479 28.272 C 89.633 28.023,89.515 28.008,89.162 28.232 C 88.853 28.428,88.330 28.593,88.000 28.600 C 87.670 28.607,87.147 28.772,86.838 28.968 C 86.452 29.212,86.366 29.179,86.562 28.862 C 86.955 28.225,86.359 28.305,85.421 29.015 C 84.993 29.339,84.309 29.498,83.902 29.369 C 83.495 29.240,82.873 29.374,82.519 29.667 C 82.166 29.960,81.590 30.203,81.239 30.206 C 80.887 30.209,80.407 30.335,80.172 30.485 C 79.937 30.635,79.246 30.849,78.637 30.959 C 78.029 31.069,77.321 31.324,77.065 31.525 C 76.809 31.726,76.195 31.855,75.700 31.812 C 75.205 31.769,74.800 31.861,74.800 32.017 C 74.800 32.173,74.248 32.410,73.573 32.545 C 72.899 32.680,72.443 32.947,72.561 33.138 C 72.679 33.328,72.304 33.394,71.728 33.284 C 71.007 33.146,70.769 33.226,70.964 33.542 C 71.147 33.838,70.903 34.000,70.273 34.000 C 69.737 34.000,69.089 34.251,68.834 34.559 C 68.579 34.866,68.017 35.025,67.585 34.912 C 67.049 34.772,66.800 34.908,66.800 35.341 C 66.800 35.740,66.578 35.890,66.200 35.745 C 65.838 35.606,65.600 35.743,65.600 36.089 C 65.600 36.428,65.230 36.650,64.700 36.632 C 64.205 36.614,63.836 36.798,63.880 37.041 C 63.929 37.309,63.554 37.404,62.921 37.283 C 62.205 37.146,61.969 37.227,62.164 37.542 C 62.343 37.831,62.134 38.000,61.600 38.000 C 61.134 38.000,60.864 38.180,61.000 38.400 C 61.136 38.620,60.864 38.800,60.395 38.800 C 59.926 38.800,59.271 39.072,58.939 39.404 C 58.607 39.736,58.125 39.887,57.868 39.740 C 57.610 39.592,57.532 39.617,57.693 39.795 C 58.043 40.182,56.437 41.670,55.976 41.385 C 55.800 41.276,55.542 41.370,55.404 41.593 C 55.266 41.817,54.803 42.000,54.376 42.000 C 53.940 42.000,53.600 42.273,53.600 42.624 C 53.600 42.967,53.420 43.136,53.200 43.000 C 52.980 42.864,52.800 42.929,52.800 43.145 C 52.800 43.360,52.264 43.654,51.610 43.798 C 50.955 43.942,50.460 44.267,50.510 44.520 C 50.559 44.774,50.197 45.043,49.704 45.118 C 49.210 45.193,48.564 45.601,48.268 46.025 C 47.971 46.448,47.609 46.676,47.464 46.531 C 47.319 46.386,47.200 46.577,47.200 46.957 C 47.200 47.337,47.019 47.535,46.797 47.398 C 46.576 47.261,46.286 47.431,46.154 47.775 C 46.022 48.119,45.653 48.400,45.334 48.400 C 45.014 48.400,44.856 48.567,44.982 48.771 C 45.109 48.976,44.804 49.205,44.306 49.281 C 43.808 49.357,43.443 49.633,43.495 49.895 C 43.548 50.157,43.368 50.287,43.095 50.184 C 42.823 50.080,42.245 50.527,41.811 51.176 C 41.378 51.825,40.951 52.285,40.864 52.197 C 40.580 51.914,39.600 53.125,39.600 53.759 C 39.600 54.142,39.373 54.288,39.000 54.145 C 38.670 54.018,38.400 54.108,38.400 54.345 C 38.400 54.581,38.130 54.671,37.800 54.545 C 37.384 54.385,37.200 54.572,37.200 55.157 C 37.200 55.621,36.990 55.955,36.733 55.900 C 36.476 55.845,36.052 56.208,35.792 56.707 C 35.532 57.206,35.173 57.746,34.995 57.907 C 34.817 58.068,34.820 57.944,35.002 57.632 C 35.206 57.279,34.931 57.355,34.278 57.832 C 33.256 58.577,32.733 59.536,33.662 58.962 C 33.950 58.784,34.015 58.852,33.834 59.145 C 33.675 59.402,33.422 59.549,33.272 59.470 C 32.911 59.280,31.811 60.466,31.760 61.100 C 31.675 62.166,31.590 62.398,31.300 62.353 C 30.475 62.222,30.000 62.459,30.000 63.000 C 30.000 63.330,29.646 63.600,29.213 63.600 C 28.677 63.600,28.499 63.792,28.655 64.200 C 28.782 64.530,28.676 64.800,28.419 64.800 C 28.163 64.800,28.081 65.008,28.238 65.262 C 28.408 65.536,28.349 65.615,28.093 65.458 C 27.735 65.236,24.000 69.570,24.000 70.208 C 24.000 70.318,23.460 70.972,22.800 71.663 C 22.140 72.354,21.600 73.252,21.600 73.659 C 21.600 74.067,21.464 74.400,21.298 74.400 C 21.131 74.400,20.737 74.985,20.422 75.700 C 19.660 77.429,18.936 78.169,18.664 77.496 C 18.546 77.204,18.450 77.288,18.432 77.700 C 18.414 78.085,18.226 78.400,18.013 78.400 C 17.799 78.400,17.729 78.670,17.855 79.000 C 18.001 79.380,17.850 79.600,17.443 79.600 C 17.027 79.600,16.800 79.947,16.800 80.584 C 16.800 81.126,16.395 81.962,15.900 82.443 C 15.405 82.924,15.270 83.172,15.600 82.994 C 15.930 82.816,15.787 83.125,15.282 83.681 C 14.777 84.236,14.417 84.854,14.482 85.053 C 14.547 85.252,14.191 85.856,13.690 86.394 C 13.190 86.932,12.867 87.597,12.973 87.873 C 13.079 88.149,12.993 88.481,12.783 88.611 C 12.572 88.741,12.397 89.242,12.394 89.724 C 12.389 90.436,12.315 90.488,12.000 90.000 C 11.695 89.529,11.611 89.626,11.606 90.451 C 11.603 91.029,11.332 91.724,11.004 91.996 C 10.677 92.268,10.520 92.670,10.656 92.890 C 10.791 93.110,10.733 93.404,10.526 93.545 C 10.320 93.685,9.727 94.880,9.210 96.200 C 8.692 97.520,8.074 98.860,7.835 99.177 C 7.500 99.621,7.522 99.680,7.930 99.435 C 8.338 99.189,8.372 99.286,8.080 99.858 C 7.871 100.266,7.318 101.345,6.850 102.254 C 6.383 103.164,6.000 104.199,6.000 104.554 C 6.000 104.910,5.820 105.200,5.600 105.200 C 5.380 105.200,5.200 106.010,5.200 107.000 C 5.200 108.000,5.012 108.800,4.776 108.800 C 4.543 108.800,4.454 108.964,4.578 109.164 C 4.875 109.645,4.402 110.848,4.010 110.606 C 3.842 110.502,3.735 111.133,3.773 112.009 C 3.818 113.048,3.669 113.600,3.344 113.600 C 3.009 113.600,2.851 114.273,2.862 115.652 C 2.870 116.781,2.718 117.816,2.522 117.952 C 2.326 118.089,2.129 118.711,2.085 119.336 C 2.040 119.960,1.874 120.680,1.717 120.934 C 1.560 121.189,1.387 122.270,1.333 123.336 C 1.279 124.403,1.033 125.519,0.786 125.817 C 0.483 126.182,0.464 126.585,0.728 127.058 C 0.956 127.464,0.979 128.128,0.785 128.639 C 0.601 129.123,0.530 130.213,0.628 131.060 C 0.757 132.170,0.695 132.433,0.409 132.000 C 0.142 131.597,0.010 135.761,0.006 144.700 C 0.003 152.015,0.136 158.000,0.303 158.000 C 0.469 158.000,0.540 158.832,0.459 159.849 C 0.359 161.106,0.486 161.809,0.856 162.043 C 1.155 162.233,1.205 162.391,0.967 162.394 C 0.728 162.397,0.533 162.670,0.533 163.000 C 0.533 163.330,0.742 163.600,0.997 163.600 C 1.285 163.600,1.395 164.055,1.285 164.800 C 1.171 165.581,1.282 166.000,1.604 166.000 C 1.984 166.000,1.977 166.145,1.575 166.630 C 1.167 167.121,1.159 167.328,1.539 167.562 C 1.807 167.728,2.043 168.704,2.064 169.732 C 2.085 170.759,2.227 171.600,2.379 171.600 C 2.669 171.600,3.864 176.774,3.696 177.300 C 3.643 177.465,3.780 177.600,4.000 177.600 C 4.220 177.600,4.400 177.960,4.400 178.400 C 4.400 178.840,4.625 179.203,4.900 179.206 C 5.274 179.211,5.266 179.297,4.866 179.550 C 4.438 179.822,4.460 179.937,4.976 180.136 C 5.437 180.312,5.548 180.668,5.366 181.391 C 5.210 182.015,5.282 182.400,5.557 182.400 C 5.800 182.400,5.979 182.535,5.953 182.700 C 5.796 183.691,6.060 184.810,6.400 184.600 C 6.815 184.344,6.950 184.856,6.812 186.155 C 6.767 186.570,6.882 187.020,7.066 187.155 C 7.753 187.659,8.400 189.229,8.400 190.395 C 8.400 191.058,8.580 191.600,8.800 191.600 C 9.020 191.600,9.162 191.735,9.115 191.900 C 9.068 192.065,9.257 192.609,9.534 193.108 C 9.810 193.608,9.911 194.221,9.757 194.470 C 9.585 194.748,9.655 194.813,9.938 194.638 C 10.192 194.481,10.414 194.498,10.431 194.676 C 10.544 195.875,10.953 196.942,12.542 200.186 C 13.528 202.200,14.624 204.088,14.977 204.381 C 15.355 204.694,15.521 205.218,15.382 205.656 C 15.216 206.179,15.345 206.400,15.816 206.400 C 16.240 206.400,16.403 206.615,16.260 206.987 C 16.136 207.310,16.207 207.681,16.417 207.811 C 16.628 207.941,16.803 208.442,16.806 208.924 C 16.811 209.636,16.885 209.688,17.200 209.200 C 17.501 208.734,17.589 208.851,17.594 209.724 C 17.597 210.370,17.770 210.742,18.000 210.600 C 18.220 210.464,18.414 210.498,18.431 210.676 C 18.538 211.815,18.818 212.557,19.370 213.167 C 19.716 213.550,20.000 214.074,20.000 214.331 C 20.000 214.589,20.160 214.800,20.357 214.800 C 20.553 214.800,20.826 215.249,20.964 215.798 C 21.101 216.346,21.346 216.775,21.507 216.750 C 22.293 216.629,22.538 216.853,22.000 217.200 C 21.491 217.529,21.510 217.589,22.124 217.594 C 22.522 217.597,22.749 217.758,22.630 217.951 C 22.267 218.539,23.613 220.800,24.329 220.806 C 24.909 220.811,24.918 220.865,24.400 221.200 C 24.000 221.458,23.967 221.590,24.300 221.594 C 24.575 221.597,24.800 221.881,24.800 222.224 C 24.800 222.567,24.980 222.736,25.200 222.600 C 25.420 222.464,25.600 222.696,25.600 223.114 C 25.600 223.533,25.948 224.191,26.373 224.576 C 26.798 224.960,27.054 225.515,26.942 225.808 C 26.829 226.101,27.200 226.644,27.765 227.014 C 28.331 227.384,28.693 227.849,28.571 228.047 C 28.449 228.244,28.619 228.509,28.949 228.636 C 29.291 228.767,29.448 229.130,29.314 229.479 C 29.127 229.968,29.274 230.033,30.039 229.801 C 30.794 229.573,30.899 229.616,30.531 230.004 C 30.273 230.275,30.163 230.761,30.287 231.082 C 30.470 231.561,30.573 231.570,30.850 231.134 C 31.109 230.725,31.189 230.764,31.194 231.300 C 31.197 231.685,31.399 232.000,31.643 232.000 C 31.886 232.000,31.982 232.270,31.855 232.600 C 31.729 232.930,31.799 233.200,32.013 233.200 C 32.226 233.200,32.400 233.378,32.400 233.595 C 32.400 233.963,32.644 234.300,34.488 236.481 C 34.867 236.929,35.284 237.634,35.415 238.048 C 35.546 238.461,35.822 238.800,36.027 238.800 C 36.232 238.800,36.400 239.057,36.400 239.372 C 36.400 239.687,36.805 240.006,37.300 240.082 C 37.795 240.157,38.152 240.449,38.093 240.731 C 37.965 241.344,38.943 242.400,39.638 242.400 C 39.910 242.400,40.024 242.509,39.891 242.643 C 39.757 242.776,39.997 243.260,40.424 243.718 C 40.851 244.176,41.200 244.766,41.200 245.029 C 41.200 245.293,41.644 245.799,42.187 246.155 C 42.730 246.511,43.083 247.039,42.972 247.330 C 42.855 247.634,43.221 248.063,43.836 248.344 C 44.423 248.611,44.789 248.945,44.648 249.085 C 44.508 249.225,44.890 249.667,45.497 250.067 C 46.104 250.467,46.367 250.796,46.081 250.797 C 45.782 250.799,46.100 251.469,46.834 252.382 C 47.533 253.253,48.307 253.928,48.553 253.882 C 48.799 253.837,48.938 254.160,48.862 254.600 C 48.786 255.040,48.860 255.266,49.027 255.102 C 49.193 254.938,49.753 255.429,50.272 256.192 C 50.791 256.955,51.572 257.771,52.008 258.004 C 52.443 258.237,52.800 258.615,52.800 258.843 C 52.800 259.415,53.837 260.400,54.438 260.400 C 54.710 260.400,54.825 260.508,54.693 260.640 C 54.561 260.772,55.056 261.483,55.793 262.220 C 56.530 262.957,57.251 263.932,57.396 264.386 C 57.540 264.840,57.788 265.131,57.948 265.032 C 58.108 264.934,58.500 265.018,58.819 265.220 C 59.260 265.499,59.273 265.589,58.871 265.594 C 58.464 265.599,58.481 265.738,58.943 266.200 C 59.273 266.530,59.725 266.800,59.948 266.800 C 60.171 266.800,60.481 267.008,60.638 267.262 C 60.832 267.575,60.743 267.615,60.362 267.385 C 59.884 267.097,59.882 267.148,60.345 267.719 C 60.645 268.089,61.050 268.293,61.245 268.172 C 61.440 268.051,61.600 268.151,61.600 268.393 C 61.600 269.081,63.165 270.590,63.884 270.595 C 64.240 270.598,64.605 270.870,64.696 271.200 C 64.840 271.724,64.809 271.726,64.452 271.212 C 64.227 270.888,63.899 270.778,63.722 270.966 C 63.545 271.155,63.645 271.397,63.945 271.503 C 64.244 271.609,64.861 272.125,65.317 272.648 C 65.772 273.172,66.412 273.600,66.739 273.600 C 67.066 273.600,67.222 273.712,67.085 273.848 C 66.830 274.103,69.964 277.170,70.500 277.189 C 70.665 277.195,70.803 277.515,70.806 277.900 C 70.811 278.498,70.869 278.513,71.200 278.000 C 71.545 277.467,71.588 277.467,71.594 278.000 C 71.603 278.744,73.330 280.800,73.947 280.800 C 74.196 280.800,74.400 280.991,74.400 281.224 C 74.400 281.457,74.578 281.537,74.795 281.403 C 75.013 281.268,75.096 281.406,74.980 281.708 C 74.855 282.035,75.181 282.445,75.785 282.720 C 76.343 282.975,76.800 283.446,76.800 283.768 C 76.800 284.090,77.008 284.481,77.262 284.638 C 77.566 284.826,77.623 284.732,77.427 284.362 C 77.264 284.053,77.503 284.250,77.959 284.800 C 78.414 285.350,78.892 286.115,79.020 286.500 C 79.149 286.885,79.512 287.200,79.827 287.200 C 80.142 287.200,80.400 287.380,80.400 287.600 C 80.400 287.820,80.617 287.955,80.882 287.900 C 81.147 287.845,81.372 288.010,81.382 288.267 C 81.392 288.523,81.564 288.883,81.764 289.067 C 81.976 289.260,82.008 289.190,81.841 288.900 C 81.682 288.625,81.701 288.400,81.882 288.400 C 82.062 288.400,82.395 288.805,82.620 289.300 C 82.845 289.795,83.248 290.155,83.515 290.100 C 83.782 290.045,84.000 290.270,84.000 290.600 C 84.000 291.141,84.475 291.378,85.300 291.247 C 85.465 291.221,85.600 291.372,85.600 291.582 C 85.600 292.091,87.528 294.000,88.042 294.000 C 88.265 294.000,88.372 294.135,88.280 294.300 C 88.188 294.465,88.717 295.190,89.456 295.911 C 90.195 296.633,90.803 297.083,90.806 296.911 C 90.809 296.740,90.983 296.870,91.192 297.200 C 91.400 297.530,91.717 297.800,91.895 297.800 C 92.073 297.800,92.653 298.205,93.185 298.700 C 93.716 299.195,94.308 299.600,94.499 299.600 C 94.691 299.600,94.743 299.769,94.615 299.976 C 94.330 300.436,95.941 302.000,96.699 302.000 C 97.001 302.000,97.144 302.167,97.018 302.371 C 96.892 302.575,97.188 302.869,97.676 303.024 C 98.683 303.344,99.600 304.156,99.600 304.729 C 99.600 305.324,100.724 305.616,100.943 305.078 C 101.049 304.815,101.151 304.990,101.168 305.467 C 101.189 306.021,101.742 306.666,102.700 307.250 C 103.525 307.754,104.260 308.309,104.333 308.483 C 104.407 308.657,104.630 308.800,104.829 308.800 C 105.423 308.800,106.800 310.136,106.800 310.713 C 106.800 311.007,106.961 311.148,107.158 311.026 C 107.355 310.904,107.627 311.094,107.763 311.448 C 107.915 311.844,108.303 312.014,108.775 311.891 C 109.343 311.742,109.479 311.851,109.302 312.311 C 109.146 312.719,109.224 312.832,109.532 312.642 C 109.803 312.475,110.000 312.585,110.000 312.904 C 110.000 313.208,110.450 313.847,111.000 314.325 C 111.550 314.803,112.000 315.005,112.000 314.774 C 112.000 314.534,112.216 314.490,112.500 314.670 C 112.775 314.845,113.180 314.995,113.400 315.005 C 113.620 315.014,113.755 315.432,113.701 315.934 C 113.646 316.436,113.770 316.742,113.976 316.615 C 114.182 316.487,114.520 316.685,114.726 317.053 C 114.965 317.481,115.352 317.627,115.795 317.457 C 116.305 317.262,116.428 317.350,116.259 317.791 C 116.132 318.121,116.219 318.348,116.452 318.295 C 116.684 318.243,117.083 318.552,117.337 318.983 C 118.135 320.333,118.777 320.861,119.259 320.564 C 119.548 320.385,119.616 320.451,119.438 320.738 C 119.183 321.151,119.661 321.380,120.500 321.247 C 120.665 321.221,120.800 321.481,120.800 321.824 C 120.800 322.167,120.981 322.335,121.203 322.198 C 121.619 321.941,122.906 322.961,122.579 323.288 C 122.478 323.389,123.071 323.815,123.898 324.236 C 124.724 324.656,125.637 325.318,125.927 325.707 C 126.217 326.095,126.667 326.292,126.927 326.143 C 127.187 325.994,127.268 326.017,127.107 326.195 C 126.793 326.542,128.734 328.403,129.400 328.393 C 129.620 328.390,129.530 328.213,129.200 328.000 C 128.870 327.787,128.795 327.609,129.033 327.606 C 129.797 327.595,130.007 328.109,129.497 328.738 C 129.080 329.251,129.113 329.307,129.704 329.086 C 130.190 328.904,130.841 329.242,131.804 330.178 C 132.572 330.923,133.200 331.452,133.200 331.353 C 133.200 331.253,133.560 331.365,134.000 331.600 C 134.440 331.835,134.800 332.249,134.800 332.518 C 134.800 332.787,135.179 333.244,135.642 333.533 C 136.339 333.969,136.437 333.968,136.211 333.530 C 136.062 333.238,136.290 333.397,136.720 333.883 C 137.149 334.369,137.613 334.654,137.750 334.516 C 137.888 334.379,138.000 334.577,138.000 334.957 C 138.000 335.337,138.180 335.536,138.400 335.400 C 138.620 335.264,138.800 335.330,138.800 335.547 C 138.800 335.764,139.343 336.212,140.007 336.543 C 140.768 336.923,141.109 336.971,140.930 336.673 C 140.766 336.399,140.929 336.429,141.319 336.745 C 141.689 337.045,141.893 337.450,141.772 337.645 C 141.651 337.840,141.751 338.000,141.993 338.000 C 142.235 338.000,142.831 338.375,143.317 338.834 C 143.803 339.293,144.740 339.949,145.400 340.294 C 146.060 340.638,146.837 341.255,147.127 341.666 C 147.417 342.077,147.824 342.309,148.030 342.181 C 148.237 342.054,148.514 342.231,148.646 342.575 C 148.778 342.919,149.136 343.200,149.443 343.200 C 149.749 343.200,150.000 343.388,150.000 343.618 C 150.000 343.847,150.313 343.982,150.696 343.918 C 151.107 343.848,151.556 344.169,151.791 344.700 C 152.035 345.251,152.541 345.600,153.095 345.600 C 153.593 345.600,154.000 345.780,154.000 346.000 C 154.000 346.220,154.225 346.355,154.500 346.300 C 154.775 346.245,154.948 346.447,154.884 346.749 C 154.810 347.098,154.991 347.212,155.384 347.062 C 155.773 346.912,156.000 347.050,156.000 347.436 C 156.000 347.772,156.180 347.936,156.400 347.800 C 156.620 347.664,156.803 347.878,156.806 348.276 C 156.811 348.890,156.871 348.909,157.200 348.400 C 157.583 347.807,157.811 348.265,157.647 349.300 C 157.621 349.465,157.735 349.579,157.900 349.553 C 158.669 349.431,159.707 349.626,159.484 349.850 C 159.241 350.092,161.753 351.999,162.318 352.001 C 162.473 352.001,163.230 352.541,164.000 353.200 C 165.422 354.417,166.280 354.777,165.762 353.938 C 165.585 353.652,165.652 353.585,165.938 353.762 C 166.192 353.919,166.400 354.317,166.400 354.647 C 166.400 354.977,166.581 355.135,166.803 354.998 C 167.024 354.861,167.309 355.019,167.436 355.349 C 167.563 355.679,167.924 355.851,168.238 355.730 C 168.970 355.449,170.073 356.347,169.731 356.945 C 169.589 357.195,169.602 357.284,169.761 357.142 C 169.919 357.000,170.515 357.315,171.083 357.842 C 171.652 358.369,172.361 358.800,172.658 358.800 C 172.956 358.800,173.200 358.999,173.200 359.243 C 173.200 359.486,173.470 359.582,173.800 359.455 C 174.172 359.313,174.400 359.457,174.400 359.836 C 174.400 360.172,174.561 360.348,174.758 360.226 C 174.955 360.104,175.219 360.274,175.346 360.602 C 175.472 360.931,175.941 361.200,176.387 361.200 C 176.834 361.200,177.200 361.360,177.200 361.557 C 177.200 361.753,177.650 362.026,178.200 362.164 C 178.750 362.302,179.200 362.602,179.200 362.831 C 179.200 363.060,179.368 363.144,179.572 363.017 C 179.777 362.891,180.060 362.973,180.200 363.200 C 180.340 363.427,180.668 363.486,180.928 363.330 C 181.187 363.174,181.130 363.386,180.800 363.800 C 180.470 364.214,180.413 364.426,180.674 364.269 C 180.942 364.109,181.588 364.424,182.156 364.992 C 182.710 365.547,183.442 366.000,183.782 366.000 C 184.122 366.000,184.400 366.180,184.400 366.400 C 184.400 366.620,184.850 366.800,185.400 366.800 C 186.029 366.800,186.400 367.026,186.400 367.410 C 186.400 368.021,187.963 368.881,189.327 369.019 C 189.726 369.060,190.266 369.308,190.527 369.570 C 190.892 369.939,190.818 369.990,190.200 369.796 C 189.644 369.621,189.704 369.726,190.395 370.137 C 190.942 370.463,191.527 370.645,191.695 370.541 C 191.863 370.438,192.000 370.633,192.000 370.976 C 192.000 371.333,192.342 371.600,192.800 371.600 C 193.240 371.600,193.600 371.800,193.600 372.043 C 193.600 372.322,194.008 372.392,194.700 372.231 C 195.516 372.042,195.645 372.080,195.200 372.382 C 194.515 372.845,194.617 372.874,197.924 373.155 C 198.212 373.180,198.345 373.365,198.220 373.567 C 197.935 374.028,201.021 373.826,201.702 373.339 C 201.976 373.143,202.686 373.005,203.280 373.031 C 203.874 373.058,204.455 372.833,204.571 372.530 C 204.717 372.152,205.117 372.064,205.853 372.249 C 206.811 372.489,206.900 372.424,206.694 371.636 C 206.511 370.940,206.574 370.846,206.989 371.191 C 207.378 371.514,207.675 371.467,208.129 371.014 C 208.467 370.676,208.904 370.400,209.102 370.400 C 209.299 370.400,209.878 369.956,210.388 369.412 C 210.899 368.869,211.464 368.516,211.644 368.627 C 211.824 368.738,212.344 368.456,212.800 368.000 C 213.256 367.544,213.807 367.281,214.025 367.415 C 214.242 367.550,214.370 367.421,214.310 367.130 C 214.249 366.838,214.431 366.647,214.712 366.704 C 214.994 366.761,215.613 366.446,216.088 366.004 C 216.562 365.562,217.277 365.200,217.675 365.200 C 218.074 365.200,218.355 364.975,218.300 364.700 C 218.245 364.425,218.425 364.245,218.700 364.300 C 218.975 364.355,219.200 364.209,219.200 363.976 C 219.200 363.743,219.380 363.664,219.600 363.800 C 219.820 363.936,220.000 363.846,220.000 363.600 C 220.000 363.354,220.180 363.264,220.400 363.400 C 220.620 363.536,220.800 363.457,220.800 363.224 C 220.800 362.991,221.083 362.800,221.429 362.800 C 222.174 362.800,223.269 361.803,222.914 361.448 C 222.778 361.311,223.177 361.200,223.800 361.200 C 224.423 361.200,224.815 361.082,224.670 360.937 C 224.281 360.547,225.195 359.600,225.961 359.600 C 226.325 359.600,226.876 359.250,227.185 358.821 C 227.493 358.393,227.864 358.116,228.008 358.205 C 228.596 358.568,230.102 357.112,229.541 356.723 C 229.149 356.451,229.221 356.407,229.800 356.565 C 230.728 356.817,231.357 356.476,231.705 355.531 C 231.875 355.070,232.226 354.934,232.838 355.094 C 233.419 355.246,233.633 355.176,233.457 354.892 C 233.309 354.652,233.552 354.342,234.000 354.200 C 234.447 354.058,234.691 353.748,234.544 353.509 C 234.397 353.271,234.439 353.173,234.638 353.291 C 235.222 353.638,236.800 352.878,236.800 352.250 C 236.800 351.886,237.073 351.746,237.545 351.870 C 238.000 351.989,238.388 351.809,238.542 351.407 C 238.681 351.045,238.957 350.850,239.155 350.972 C 239.354 351.095,239.624 350.915,239.755 350.572 C 239.887 350.230,240.176 350.061,240.397 350.198 C 240.619 350.335,240.800 350.156,240.800 349.800 C 240.800 349.444,240.980 349.264,241.200 349.400 C 241.420 349.536,241.600 349.346,241.600 348.977 C 241.600 348.493,241.833 348.368,242.440 348.526 C 242.901 348.647,243.180 348.647,243.059 348.525 C 242.776 348.242,243.808 347.200,244.371 347.200 C 244.607 347.200,244.800 347.009,244.800 346.776 C 244.800 346.543,244.975 346.461,245.188 346.593 C 245.402 346.725,245.974 346.375,246.461 345.816 C 246.947 345.257,247.672 344.800,248.072 344.800 C 248.472 344.800,248.800 344.542,248.800 344.227 C 248.800 343.912,249.160 343.540,249.600 343.400 C 250.040 343.260,250.400 343.017,250.400 342.859 C 250.400 342.336,252.793 341.149,253.263 341.439 C 253.533 341.606,253.615 341.549,253.462 341.301 C 253.319 341.069,253.849 340.496,254.640 340.030 C 255.594 339.466,256.001 338.979,255.848 338.581 C 255.661 338.093,255.766 338.061,256.415 338.408 C 256.861 338.647,257.165 338.668,257.106 338.457 C 257.048 338.250,257.115 338.107,257.255 338.140 C 257.395 338.173,257.904 337.750,258.385 337.200 C 258.867 336.650,259.147 336.425,259.007 336.700 C 258.560 337.579,259.384 337.235,260.141 336.226 C 260.602 335.613,261.107 335.343,261.506 335.496 C 261.971 335.675,262.072 335.565,261.887 335.082 C 261.748 334.721,261.835 334.302,262.079 334.151 C 262.348 333.985,262.411 334.059,262.238 334.338 C 261.745 335.136,262.394 334.842,263.444 333.792 C 263.998 333.238,264.620 332.889,264.826 333.016 C 265.032 333.143,265.200 332.961,265.200 332.611 C 265.200 332.261,265.469 331.872,265.798 331.746 C 266.126 331.619,266.279 331.327,266.136 331.096 C 265.993 330.865,266.064 330.792,266.293 330.934 C 266.522 331.075,266.932 330.923,267.204 330.596 C 267.476 330.268,267.959 330.000,268.278 330.000 C 269.113 330.000,270.102 328.889,269.760 328.335 C 269.560 328.011,269.690 327.949,270.177 328.136 C 270.688 328.332,271.307 327.961,272.396 326.804 C 273.227 325.922,274.243 325.197,274.653 325.194 C 275.282 325.189,275.305 325.126,274.800 324.800 C 274.314 324.486,274.368 324.411,275.088 324.406 C 275.601 324.403,276.341 323.906,276.839 323.232 C 277.314 322.590,277.921 322.148,278.187 322.250 C 278.454 322.353,278.926 322.124,279.236 321.741 C 279.718 321.148,279.718 321.096,279.238 321.385 C 278.857 321.615,278.768 321.575,278.962 321.262 C 279.119 321.008,279.517 320.800,279.847 320.800 C 280.177 320.800,280.336 320.620,280.200 320.400 C 279.978 320.040,280.503 319.827,281.300 319.953 C 281.465 319.979,281.600 319.730,281.600 319.400 C 281.600 319.070,281.735 318.821,281.900 318.847 C 283.243 319.059,284.274 318.213,283.625 317.430 C 283.321 317.063,283.276 316.800,283.518 316.800 C 283.746 316.800,284.014 317.025,284.113 317.300 C 284.232 317.632,284.593 317.463,285.184 316.800 C 285.675 316.250,286.329 315.853,286.638 315.918 C 287.141 316.023,287.381 315.544,287.247 314.700 C 287.221 314.535,287.335 314.421,287.500 314.447 C 288.303 314.574,288.790 314.352,288.700 313.900 C 288.645 313.625,288.831 313.447,289.114 313.505 C 289.717 313.627,291.664 311.798,291.309 311.442 C 291.176 311.309,291.287 311.200,291.557 311.200 C 291.827 311.200,291.919 310.992,291.762 310.738 C 291.598 310.473,291.651 310.384,291.887 310.530 C 292.112 310.669,292.703 310.431,293.200 310.000 C 293.697 309.569,294.215 309.284,294.352 309.366 C 294.488 309.449,294.832 309.265,295.116 308.958 C 295.399 308.651,295.489 308.397,295.316 308.394 C 295.142 308.391,295.450 308.151,296.000 307.861 C 296.550 307.572,296.957 307.131,296.905 306.882 C 296.852 306.633,297.044 306.519,297.330 306.628 C 297.616 306.738,298.094 306.372,298.393 305.814 C 298.691 305.256,299.164 304.800,299.444 304.800 C 299.724 304.800,300.081 304.592,300.238 304.338 C 300.427 304.033,300.346 303.986,300.000 304.200 C 299.643 304.420,299.573 304.368,299.778 304.035 C 299.944 303.767,300.176 303.642,300.293 303.759 C 300.640 304.106,302.043 303.193,301.790 302.785 C 301.663 302.578,301.838 302.516,302.179 302.647 C 302.587 302.804,302.800 302.657,302.800 302.219 C 302.800 301.853,302.953 301.647,303.140 301.763 C 303.327 301.878,303.714 301.535,304.000 301.000 C 304.286 300.465,304.660 300.114,304.831 300.219 C 305.002 300.325,305.258 300.046,305.400 299.600 C 305.542 299.154,305.838 298.900,306.059 299.037 C 306.518 299.320,308.000 297.880,308.000 297.150 C 308.000 296.884,308.114 296.780,308.253 296.919 C 308.392 297.058,309.292 296.340,310.253 295.322 C 311.214 294.305,312.000 293.623,312.000 293.806 C 312.000 293.989,312.444 293.722,312.988 293.212 C 313.531 292.701,313.878 292.125,313.758 291.932 C 313.638 291.738,313.689 291.606,313.870 291.637 C 314.720 291.785,315.200 291.547,315.200 290.976 C 315.200 290.633,315.380 290.464,315.600 290.600 C 315.820 290.736,316.003 290.522,316.006 290.124 C 316.011 289.510,316.071 289.491,316.400 290.000 C 316.731 290.513,316.789 290.498,316.794 289.900 C 316.797 289.515,316.944 289.200,317.121 289.200 C 317.691 289.200,321.200 285.565,321.200 284.973 C 321.200 284.658,321.371 284.400,321.579 284.400 C 322.143 284.400,324.000 282.582,324.000 282.031 C 324.000 281.768,324.135 281.625,324.300 281.713 C 324.693 281.923,326.004 280.537,325.700 280.233 C 325.572 280.105,325.767 280.000,326.133 280.000 C 326.500 280.000,326.755 279.838,326.700 279.640 C 326.645 279.442,326.690 279.306,326.800 279.338 C 327.297 279.484,329.692 277.409,330.019 276.550 C 330.219 276.024,330.611 275.640,330.891 275.697 C 331.171 275.754,331.355 275.575,331.300 275.300 C 331.245 275.025,331.419 274.845,331.687 274.900 C 331.954 274.955,332.494 274.370,332.886 273.600 C 333.278 272.830,333.599 272.370,333.599 272.578 C 333.600 272.786,334.815 271.710,336.300 270.187 C 337.785 268.664,339.135 267.458,339.300 267.509 C 339.587 267.596,339.759 266.967,339.637 266.270 C 339.606 266.089,339.733 266.035,339.919 266.150 C 340.315 266.395,341.600 265.003,341.600 264.329 C 341.600 264.075,341.711 263.978,341.848 264.114 C 342.219 264.486,343.290 263.269,343.002 262.803 C 342.865 262.581,343.033 262.400,343.376 262.400 C 343.719 262.400,344.000 262.222,344.000 262.005 C 344.000 261.788,344.887 260.719,345.971 259.629 C 347.128 258.466,347.748 257.568,347.471 257.455 C 347.212 257.350,347.328 257.249,347.729 257.232 C 348.644 257.192,349.732 256.138,349.405 255.608 C 349.262 255.377,349.421 255.310,349.779 255.447 C 350.159 255.593,350.400 255.467,350.400 255.124 C 350.400 254.815,351.113 253.867,351.983 253.016 C 352.854 252.166,353.474 251.319,353.360 251.135 C 353.246 250.951,353.354 250.800,353.600 250.800 C 353.846 250.800,353.936 250.620,353.800 250.400 C 353.664 250.180,353.716 250.000,353.915 250.000 C 354.559 250.000,356.177 248.402,355.561 248.375 C 355.253 248.361,355.417 248.182,355.926 247.978 C 356.435 247.774,356.752 247.446,356.630 247.249 C 356.508 247.052,356.675 246.670,357.000 246.400 C 357.325 246.130,357.494 245.752,357.375 245.559 C 357.256 245.367,357.483 245.326,357.879 245.468 C 358.276 245.611,358.471 245.585,358.314 245.411 C 358.157 245.237,358.562 244.596,359.214 243.987 C 360.430 242.851,360.792 242.136,359.900 242.630 C 359.625 242.783,360.030 242.292,360.800 241.541 C 361.570 240.789,362.366 240.254,362.568 240.352 C 362.770 240.451,362.821 240.232,362.681 239.866 C 362.514 239.431,362.629 239.200,363.013 239.200 C 363.336 239.200,363.600 239.009,363.600 238.776 C 363.600 238.543,363.402 238.475,363.160 238.625 C 362.851 238.816,362.855 238.644,363.174 238.048 C 363.424 237.582,363.722 237.200,363.838 237.200 C 363.953 237.200,363.931 237.425,363.789 237.700 C 363.647 237.975,363.902 237.750,364.356 237.200 C 364.811 236.650,365.186 235.964,365.191 235.676 C 365.196 235.388,365.380 235.264,365.600 235.400 C 365.820 235.536,366.000 235.266,366.000 234.800 C 366.000 234.334,366.144 234.042,366.320 234.151 C 366.496 234.259,366.869 233.981,367.149 233.532 C 367.568 232.862,367.564 232.765,367.130 232.988 C 366.838 233.137,366.881 233.021,367.225 232.730 C 367.568 232.438,367.972 231.874,368.122 231.475 C 368.272 231.076,368.576 230.861,368.797 230.998 C 369.020 231.136,369.200 230.862,369.200 230.386 C 369.200 229.862,369.513 229.443,370.000 229.316 C 370.729 229.125,370.976 228.713,370.847 227.900 C 370.821 227.735,370.980 227.600,371.200 227.600 C 371.420 227.600,371.600 227.259,371.600 226.843 C 371.600 226.426,371.881 225.978,372.225 225.846 C 372.569 225.714,372.744 225.433,372.614 225.223 C 372.484 225.012,372.748 224.642,373.200 224.400 C 373.652 224.158,373.911 223.779,373.774 223.559 C 373.638 223.338,373.909 222.826,374.377 222.420 C 374.845 222.014,375.176 221.439,375.114 221.141 C 375.051 220.844,375.225 220.645,375.500 220.700 C 375.775 220.755,375.979 220.665,375.953 220.500 C 375.815 219.627,376.048 219.181,376.500 219.453 C 376.899 219.693,376.900 219.629,376.503 219.140 C 375.930 218.431,376.222 217.957,377.039 218.270 C 377.411 218.413,377.600 218.201,377.600 217.643 C 377.600 217.179,377.825 216.797,378.100 216.794 C 378.437 216.790,378.408 216.666,378.010 216.414 C 377.528 216.110,377.601 215.969,378.410 215.646 C 378.954 215.429,379.135 215.239,378.811 215.225 C 378.415 215.208,378.522 214.990,379.138 214.558 C 379.643 214.204,379.958 213.667,379.839 213.358 C 379.712 213.026,379.880 212.800,380.255 212.800 C 380.658 212.800,380.800 212.578,380.650 212.185 C 380.515 211.835,380.669 211.472,381.007 211.342 C 381.333 211.217,381.600 210.840,381.600 210.504 C 381.600 210.168,381.988 209.558,382.461 209.147 C 383.040 208.645,383.138 208.398,382.761 208.394 C 382.306 208.389,382.313 208.315,382.800 208.000 C 383.130 207.787,383.252 207.609,383.071 207.606 C 382.891 207.603,383.027 207.315,383.375 206.968 C 383.723 206.620,383.905 206.170,383.780 205.968 C 383.655 205.765,383.833 205.600,384.176 205.600 C 384.533 205.600,384.800 205.258,384.800 204.800 C 384.800 204.360,384.983 204.000,385.206 204.000 C 385.436 204.000,385.521 203.486,385.402 202.811 C 385.227 201.821,385.304 201.665,385.862 201.879 C 386.282 202.040,386.433 201.978,386.268 201.710 C 386.123 201.476,386.274 201.181,386.602 201.054 C 386.931 200.928,387.200 200.539,387.200 200.189 C 387.200 199.810,387.013 199.668,386.738 199.838 C 386.443 200.021,386.385 199.947,386.579 199.635 C 386.745 199.366,387.103 199.231,387.374 199.335 C 387.702 199.460,387.844 199.142,387.799 198.384 C 387.761 197.750,387.924 197.278,388.166 197.322 C 388.405 197.365,388.600 197.040,388.600 196.600 C 388.600 196.160,388.852 195.602,389.161 195.361 C 389.470 195.119,389.606 194.733,389.463 194.503 C 389.321 194.272,389.465 193.984,389.783 193.862 C 390.103 193.739,390.294 193.286,390.209 192.848 C 390.125 192.413,390.404 191.656,390.828 191.167 C 391.253 190.678,391.600 189.945,391.600 189.539 C 391.600 189.132,391.780 188.800,392.000 188.800 C 392.220 188.800,392.400 188.519,392.400 188.176 C 392.400 187.833,392.207 187.672,391.970 187.818 C 391.734 187.964,391.778 187.705,392.067 187.242 C 392.356 186.779,392.690 186.400,392.809 186.400 C 392.928 186.400,393.065 185.923,393.113 185.340 C 393.161 184.758,393.396 184.046,393.635 183.758 C 393.874 183.470,393.962 183.062,393.831 182.850 C 393.700 182.638,393.819 182.225,394.096 181.932 C 394.373 181.640,394.662 180.950,394.738 180.400 C 394.814 179.850,395.039 179.340,395.238 179.267 C 395.437 179.193,395.600 178.638,395.600 178.033 C 395.600 177.428,395.719 176.814,395.865 176.668 C 396.011 176.522,396.193 175.827,396.270 175.122 C 396.348 174.417,396.633 173.699,396.905 173.526 C 397.272 173.293,397.245 173.209,396.800 173.200 C 396.303 173.190,396.295 173.128,396.752 172.838 C 397.105 172.614,397.237 172.035,397.119 171.227 C 396.981 170.290,397.070 170.018,397.467 170.170 C 397.868 170.324,398.000 169.875,398.000 168.364 C 398.000 167.258,398.135 166.436,398.300 166.537 C 398.465 166.639,398.632 165.733,398.671 164.524 C 398.711 163.315,398.877 162.028,399.040 161.663 C 399.561 160.503,399.580 159.058,399.082 158.443 C 398.757 158.040,398.749 157.936,399.057 158.120 C 399.335 158.287,399.614 158.000,399.767 157.391 C 400.112 156.015,400.029 130.335,399.680 130.551 C 399.526 130.647,399.433 129.478,399.473 127.955 C 399.516 126.326,399.392 125.281,399.173 125.417 C 398.806 125.643,398.591 123.305,398.771 121.057 C 398.823 120.414,398.696 120.017,398.481 120.150 C 398.027 120.430,397.463 117.345,397.853 116.714 C 398.015 116.452,397.939 116.391,397.662 116.562 C 397.344 116.758,397.196 116.371,397.186 115.324 C 397.178 114.486,396.927 113.359,396.629 112.820 C 396.331 112.281,396.163 111.642,396.256 111.399 C 396.452 110.889,395.382 108.160,394.860 107.837 C 394.666 107.717,394.600 107.135,394.713 106.544 C 394.869 105.724,394.782 105.521,394.345 105.689 C 393.900 105.860,393.806 105.608,393.928 104.568 C 394.028 103.710,393.859 103.002,393.459 102.602 C 393.115 102.258,392.934 101.717,393.056 101.399 C 393.178 101.081,392.998 100.541,392.656 100.199 C 392.312 99.855,392.146 99.285,392.285 98.923 C 392.453 98.485,392.381 98.365,392.068 98.558 C 391.767 98.744,391.600 98.546,391.600 98.004 C 391.600 97.540,391.325 96.629,390.990 95.980 C 390.654 95.331,390.519 94.796,390.690 94.791 C 390.860 94.786,390.550 94.409,390.000 93.954 C 389.345 93.411,389.242 93.203,389.700 93.350 C 390.085 93.474,390.400 93.401,390.400 93.187 C 390.400 92.974,390.140 92.800,389.823 92.800 C 389.461 92.800,389.303 92.501,389.400 92.000 C 389.493 91.519,389.339 91.200,389.014 91.200 C 388.668 91.200,388.551 90.907,388.689 90.383 C 388.834 89.825,388.727 89.603,388.351 89.683 C 387.979 89.762,387.843 89.494,387.933 88.856 C 388.008 88.316,387.898 88.016,387.674 88.154 C 387.242 88.421,386.682 87.314,386.994 86.809 C 387.102 86.634,386.788 86.368,386.296 86.219 C 385.752 86.053,385.596 85.865,385.900 85.740 C 386.175 85.626,386.400 85.358,386.400 85.143 C 386.400 84.928,386.240 84.852,386.044 84.973 C 385.545 85.281,384.292 83.258,384.556 82.570 C 384.684 82.238,384.283 81.642,383.587 81.127 C 382.750 80.509,382.400 79.910,382.400 79.101 C 382.400 78.437,382.231 78.057,382.000 78.200 C 381.780 78.336,381.600 78.082,381.600 77.636 C 381.600 77.070,381.414 76.897,380.984 77.062 C 380.645 77.192,380.410 77.141,380.463 76.949 C 380.636 76.316,379.949 74.784,379.591 75.005 C 379.170 75.266,378.319 73.814,378.681 73.453 C 378.820 73.314,378.713 73.200,378.443 73.200 C 378.173 73.200,378.052 73.039,378.174 72.842 C 378.296 72.645,378.129 72.382,377.804 72.257 C 377.479 72.132,377.307 71.787,377.421 71.490 C 377.538 71.183,377.196 70.719,376.628 70.415 C 376.077 70.120,375.702 69.759,375.792 69.613 C 375.883 69.466,375.607 69.093,375.179 68.785 C 374.750 68.476,374.400 67.999,374.400 67.725 C 374.400 67.084,372.156 64.777,371.840 65.094 C 371.708 65.225,371.600 65.027,371.600 64.653 C 371.600 64.279,371.015 63.375,370.300 62.643 C 369.585 61.911,368.805 60.972,368.567 60.556 C 368.329 60.140,367.743 59.622,367.264 59.404 C 366.785 59.186,366.293 58.694,366.172 58.312 C 366.051 57.929,365.816 57.658,365.650 57.708 C 365.212 57.842,362.800 55.351,362.800 54.764 C 362.800 54.491,362.700 54.367,362.577 54.490 C 362.454 54.612,361.779 54.126,361.077 53.409 C 360.375 52.692,359.395 51.980,358.900 51.826 C 358.405 51.672,358.000 51.378,358.000 51.173 C 358.000 50.501,356.418 49.200,355.600 49.200 C 355.160 49.200,354.800 49.048,354.800 48.862 C 354.800 48.224,352.974 46.400,352.336 46.400 C 351.686 46.400,350.413 45.205,351.051 45.194 C 351.533 45.185,350.296 44.412,349.800 44.412 C 349.580 44.412,349.668 44.582,349.995 44.788 C 350.469 45.088,350.416 45.152,349.739 45.100 C 349.260 45.064,348.968 44.827,349.071 44.559 C 349.172 44.296,349.034 43.945,348.765 43.779 C 348.423 43.567,348.379 43.645,348.617 44.038 C 348.804 44.347,348.358 44.005,347.626 43.278 C 346.893 42.550,346.052 42.048,345.757 42.161 C 345.462 42.274,345.081 42.137,344.911 41.856 C 344.433 41.070,340.062 38.715,339.605 38.997 C 339.382 39.135,339.200 38.956,339.200 38.600 C 339.200 38.244,339.039 38.052,338.842 38.174 C 338.645 38.296,338.373 38.106,338.237 37.752 C 338.081 37.345,337.699 37.185,337.195 37.317 C 336.757 37.432,336.488 37.381,336.597 37.205 C 336.867 36.769,334.881 36.305,334.282 36.665 C 334.017 36.824,334.070 36.615,334.400 36.202 C 334.946 35.518,334.935 35.474,334.285 35.718 C 333.830 35.889,333.487 35.771,333.342 35.393 C 333.217 35.067,332.684 34.800,332.157 34.800 C 331.631 34.800,331.200 34.608,331.200 34.373 C 331.200 34.134,330.862 34.053,330.434 34.189 C 330.012 34.323,329.555 34.250,329.417 34.027 C 328.995 33.345,326.444 32.298,325.803 32.543 C 325.411 32.694,325.198 32.535,325.194 32.087 C 325.189 31.549,325.113 31.518,324.844 31.943 C 324.600 32.327,324.419 32.354,324.222 32.036 C 324.070 31.789,323.777 31.691,323.572 31.817 C 323.368 31.944,323.200 31.772,323.200 31.436 C 323.200 31.056,322.972 30.913,322.597 31.057 C 322.265 31.184,321.585 31.020,321.084 30.692 C 320.584 30.364,319.512 30.136,318.702 30.186 C 317.893 30.235,317.312 30.142,317.413 29.979 C 317.705 29.507,316.598 29.242,314.967 29.393 C 313.962 29.487,313.650 29.413,314.030 29.173 C 314.344 28.974,314.420 28.786,314.200 28.755 C 313.980 28.723,313.350 28.629,312.800 28.546 C 312.250 28.463,311.170 28.306,310.400 28.198 C 309.630 28.090,308.460 27.900,307.800 27.774 C 307.140 27.649,306.289 27.547,305.908 27.548 C 305.527 27.548,305.112 27.381,304.984 27.175 C 304.857 26.969,304.573 26.800,304.353 26.800 C 304.133 26.800,304.088 27.025,304.253 27.300 C 304.484 27.685,304.421 27.695,303.977 27.342 C 303.644 27.079,302.342 26.931,300.900 26.995 C 299.525 27.055,298.400 26.973,298.400 26.813 C 298.400 26.327,295.864 26.416,295.235 26.924 C 294.789 27.284,294.715 27.285,294.930 26.928 C 295.123 26.606,294.798 26.447,293.906 26.427 C 293.188 26.411,291.970 26.375,291.200 26.347 C 289.501 26.285,287.955 26.534,287.221 26.987 C 286.854 27.214,286.769 27.173,286.962 26.862 C 287.133 26.585,286.987 26.400,286.600 26.400 C 286.198 26.400,286.060 26.590,286.235 26.900 C 286.461 27.300,286.410 27.300,285.979 26.900 C 285.356 26.322,284.000 26.228,284.000 26.763 C 284.000 26.962,283.639 27.031,283.198 26.915 C 282.757 26.800,282.127 26.929,281.798 27.202 C 281.347 27.576,281.200 27.581,281.200 27.222 C 281.200 26.953,280.896 26.840,280.500 26.963 C 280.115 27.083,279.215 27.223,278.500 27.275 C 277.785 27.328,277.200 27.500,277.200 27.659 C 277.200 27.817,276.750 27.865,276.200 27.766 C 275.611 27.659,275.200 27.772,275.200 28.041 C 275.200 28.365,275.026 28.353,274.600 28.000 C 274.116 27.599,273.999 27.608,273.994 28.051 C 273.989 28.505,273.929 28.507,273.649 28.066 C 273.179 27.323,273.024 27.316,272.200 28.000 C 271.802 28.330,270.992 28.600,270.400 28.600 C 269.808 28.600,269.026 28.846,268.664 29.147 C 268.301 29.448,267.643 29.600,267.202 29.485 C 266.742 29.364,266.397 29.472,266.394 29.737 C 266.390 30.033,266.266 30.008,266.050 29.666 C 265.778 29.238,265.663 29.259,265.465 29.774 C 265.287 30.240,264.889 30.357,264.010 30.202 C 263.318 30.080,262.800 30.162,262.800 30.394 C 262.800 30.617,262.189 30.800,261.443 30.800 C 260.625 30.800,259.997 31.031,259.863 31.381 C 259.734 31.717,259.286 31.894,258.800 31.800 C 258.308 31.705,257.866 31.884,257.733 32.231 C 257.591 32.600,257.221 32.734,256.753 32.585 C 256.339 32.454,256.000 32.500,256.000 32.688 C 256.000 32.876,255.622 33.058,255.160 33.093 C 254.698 33.128,254.095 33.464,253.821 33.839 C 253.546 34.215,253.113 34.393,252.858 34.236 C 252.603 34.078,252.102 34.241,251.745 34.598 C 251.389 34.954,250.850 35.151,250.548 35.036 C 250.247 34.920,250.000 34.999,250.000 35.213 C 250.000 35.426,249.634 35.600,249.187 35.600 C 248.741 35.600,248.279 35.850,248.162 36.156 C 248.034 36.488,247.596 36.635,247.074 36.521 C 246.367 36.367,246.315 36.413,246.800 36.759 C 247.297 37.114,247.242 37.189,246.483 37.194 C 245.979 37.197,245.180 37.560,244.708 38.000 C 244.236 38.440,243.523 38.800,243.125 38.800 C 242.726 38.800,242.400 38.980,242.400 39.200 C 242.400 39.420,242.130 39.600,241.800 39.600 C 241.470 39.600,240.840 39.960,240.400 40.400 C 239.960 40.840,239.314 41.200,238.964 41.200 C 238.614 41.200,237.971 41.605,237.534 42.100 C 237.097 42.595,236.853 42.775,236.993 42.500 C 237.412 41.676,236.632 41.936,236.093 42.800 C 235.818 43.240,235.235 43.600,234.797 43.600 C 234.358 43.600,234.000 43.737,234.000 43.904 C 234.000 44.071,233.621 44.444,233.158 44.733 C 232.461 45.169,232.371 45.168,232.635 44.730 C 232.851 44.370,232.717 44.392,232.215 44.800 C 231.810 45.130,231.242 45.940,230.954 46.600 C 230.667 47.260,230.424 47.591,230.416 47.335 C 230.407 47.080,230.085 46.921,229.700 46.982 C 229.315 47.044,229.025 47.386,229.055 47.743 C 229.085 48.099,228.930 48.280,228.710 48.144 C 228.490 48.009,228.157 48.146,227.970 48.449 C 227.782 48.752,227.488 49.016,227.315 49.035 C 226.462 49.128,225.600 49.747,225.600 50.266 C 225.600 50.586,225.439 50.748,225.243 50.626 C 225.046 50.505,224.769 50.871,224.626 51.439 C 224.453 52.128,224.172 52.398,223.783 52.249 C 223.462 52.126,223.200 52.169,223.200 52.345 C 223.200 52.521,222.756 52.902,222.214 53.193 C 221.671 53.483,221.339 53.901,221.475 54.122 C 221.612 54.343,221.530 54.404,221.294 54.258 C 220.600 53.829,219.413 55.224,220.070 55.696 C 220.482 55.991,220.462 56.032,219.979 55.881 C 219.638 55.774,218.944 56.117,218.437 56.643 C 217.931 57.169,217.355 57.600,217.158 57.600 C 216.961 57.600,216.800 57.900,216.800 58.267 C 216.800 58.633,216.691 58.824,216.557 58.691 C 216.180 58.314,215.277 59.335,215.492 59.895 C 215.597 60.169,215.349 60.512,214.942 60.657 C 213.848 61.047,212.787 62.055,213.039 62.463 C 213.160 62.659,213.021 62.770,212.730 62.710 C 212.438 62.649,212.224 62.908,212.253 63.284 C 212.282 63.661,212.169 63.931,212.002 63.884 C 211.594 63.771,209.200 66.279,209.200 66.820 C 209.200 67.055,208.989 67.117,208.732 66.958 C 208.424 66.767,208.346 66.881,208.503 67.292 C 208.646 67.665,208.353 68.281,207.771 68.827 C 207.237 69.329,206.800 69.989,206.800 70.293 C 206.800 70.598,206.620 70.736,206.400 70.600 C 206.180 70.464,206.000 70.711,206.000 71.149 C 206.000 71.595,205.647 72.058,205.200 72.200 C 204.760 72.340,204.400 72.632,204.400 72.851 C 204.400 73.069,204.608 73.119,204.862 72.962 C 205.141 72.789,205.215 72.852,205.049 73.121 C 204.898 73.365,204.510 73.464,204.187 73.340 C 203.785 73.186,203.600 73.381,203.600 73.957 C 203.600 74.421,203.401 74.800,203.157 74.800 C 202.914 74.800,202.814 75.061,202.937 75.380 C 203.093 75.786,202.967 75.886,202.515 75.712 C 202.011 75.519,201.921 75.653,202.098 76.333 C 202.250 76.912,202.142 77.200,201.775 77.200 C 201.451 77.200,201.319 77.446,201.455 77.800 C 201.598 78.172,201.454 78.400,201.076 78.400 C 200.741 78.400,200.403 78.590,200.326 78.823 C 200.141 79.376,198.800 78.858,198.800 78.233 C 198.800 77.968,198.475 77.402,198.078 76.975 C 197.680 76.549,197.299 76.020,197.230 75.800 C 196.947 74.893,196.105 74.025,195.777 74.303 C 195.584 74.466,195.627 74.330,195.873 74.000 C 196.210 73.547,196.182 73.273,195.760 72.884 C 195.452 72.601,195.200 72.457,195.200 72.566 C 195.200 72.675,194.750 72.314,194.200 71.764 C 193.165 70.729,192.879 70.155,193.630 70.618 C 193.867 70.765,193.831 70.518,193.549 70.068 C 193.269 69.619,192.716 69.167,192.320 69.063 C 191.855 68.942,191.600 68.499,191.600 67.814 C 191.600 67.208,191.428 66.859,191.200 67.000 C 190.980 67.136,190.794 67.102,190.786 66.924 C 190.778 66.746,190.308 66.060,189.742 65.400 C 189.175 64.740,188.833 64.425,188.980 64.700 C 189.127 64.975,189.036 65.200,188.777 65.200 C 188.510 65.200,188.394 64.868,188.508 64.430 C 188.649 63.890,188.544 63.723,188.155 63.873 C 187.799 64.009,187.600 63.806,187.600 63.305 C 187.600 62.387,186.284 61.063,185.804 61.499 C 185.622 61.665,185.583 61.491,185.719 61.113 C 185.854 60.735,185.765 60.302,185.521 60.151 C 185.252 59.985,185.189 60.059,185.362 60.338 C 185.769 60.997,185.252 60.909,184.543 60.200 C 184.213 59.870,184.120 59.600,184.337 59.600 C 184.554 59.600,184.162 58.997,183.466 58.260 C 182.770 57.524,182.065 56.994,181.900 57.084 C 181.735 57.174,181.600 57.044,181.600 56.795 C 181.600 56.335,181.315 56.019,179.619 54.600 C 179.093 54.160,178.802 54.038,178.973 54.330 C 179.231 54.769,179.139 54.769,178.438 54.331 C 177.973 54.040,177.774 53.742,177.996 53.668 C 178.674 53.442,178.446 52.800,177.688 52.800 C 177.297 52.800,176.724 52.450,176.415 52.021 C 176.107 51.593,175.707 51.334,175.527 51.445 C 175.347 51.556,175.200 51.337,175.200 50.957 C 175.200 50.577,175.086 50.381,174.947 50.520 C 174.808 50.659,174.345 50.329,173.918 49.786 C 173.491 49.244,172.951 48.800,172.717 48.800 C 172.483 48.800,171.865 48.340,171.344 47.777 C 170.814 47.205,170.194 46.880,169.936 47.039 C 169.631 47.228,169.586 47.146,169.804 46.794 C 170.046 46.402,169.946 46.335,169.421 46.537 C 168.906 46.734,168.771 46.652,168.930 46.238 C 169.133 45.710,168.196 44.989,167.500 45.136 C 167.335 45.171,167.200 45.025,167.200 44.810 C 167.200 44.348,164.806 43.038,164.787 43.490 C 164.779 43.660,164.459 43.425,164.076 42.966 C 163.692 42.507,162.902 42.012,162.320 41.866 C 161.738 41.720,160.671 41.105,159.949 40.500 C 159.226 39.895,158.771 39.670,158.936 40.000 C 159.102 40.330,158.937 40.195,158.570 39.700 C 158.203 39.205,157.553 38.800,157.125 38.800 C 155.988 38.800,154.735 38.029,155.048 37.522 C 155.227 37.232,154.973 37.150,154.296 37.280 C 153.502 37.431,153.325 37.339,153.506 36.868 C 153.677 36.422,153.557 36.331,153.054 36.524 C 152.628 36.687,152.284 36.562,152.142 36.193 C 152.017 35.867,151.499 35.600,150.991 35.600 C 150.482 35.600,150.007 35.425,149.933 35.212 C 149.860 34.998,149.350 34.741,148.800 34.641 C 148.250 34.541,147.755 34.424,147.700 34.380 C 147.645 34.336,147.413 34.277,147.185 34.250 C 146.957 34.223,146.625 33.964,146.446 33.675 C 146.268 33.386,145.561 33.134,144.875 33.114 C 144.147 33.094,143.731 32.911,143.876 32.677 C 144.028 32.431,143.788 32.362,143.263 32.500 C 142.682 32.651,142.400 32.542,142.400 32.165 C 142.400 31.807,142.076 31.659,141.500 31.754 C 141.005 31.836,140.330 31.672,140.000 31.391 C 139.670 31.110,138.770 30.791,138.000 30.682 C 137.230 30.574,136.255 30.345,135.834 30.175 C 135.299 29.957,135.155 30.003,135.355 30.327 C 135.542 30.630,135.426 30.708,135.021 30.553 C 134.679 30.422,134.400 30.064,134.400 29.757 C 134.400 29.092,133.537 29.023,132.920 29.640 C 132.600 29.960,132.264 29.864,131.689 29.289 C 131.113 28.713,130.451 28.524,129.257 28.597 C 128.355 28.651,127.714 28.539,127.832 28.348 C 128.046 28.002,127.272 27.903,124.200 27.879 C 123.320 27.873,122.825 27.792,123.100 27.700 C 123.375 27.608,123.600 27.362,123.600 27.153 C 123.600 26.918,123.312 26.926,122.853 27.172 C 122.442 27.392,122.037 27.505,121.953 27.424 C 121.317 26.808,118.734 26.850,118.973 27.473 C 119.196 28.056,119.106 28.042,118.348 27.378 C 117.804 26.900,117.593 26.832,117.800 27.200 C 118.042 27.631,117.912 27.603,117.337 27.100 C 116.428 26.305,114.546 26.163,114.309 26.872 C 114.206 27.181,113.884 27.227,113.376 27.007 C 112.949 26.821,112.150 26.619,111.600 26.558 C 111.050 26.497,110.060 26.346,109.400 26.223 C 108.725 26.097,107.632 26.253,106.900 26.580 " stroke="none" fill="#ec7ca4" fill-rule="evenodd"></path><path id="path1" d="M38.700 53.357 C 38.315 53.649,38.000 54.121,38.000 54.405 C 38.000 54.693,38.355 54.513,38.800 54.000 C 39.935 52.692,39.897 52.448,38.700 53.357 " stroke="none" fill="#ec7cac" fill-rule="evenodd"></path><path id="path2" d="M103.300 26.276 C 103.685 26.376,104.315 26.376,104.700 26.276 C 105.085 26.175,104.770 26.093,104.000 26.093 C 103.230 26.093,102.915 26.175,103.300 26.276 M105.606 26.700 C 105.610 27.150,105.717 27.236,105.906 26.940 C 106.068 26.688,106.650 26.397,107.200 26.295 C 108.047 26.137,108.001 26.101,106.900 26.054 C 105.906 26.013,105.601 26.165,105.606 26.700 M110.344 26.357 C 110.841 26.672,112.400 26.517,112.400 26.153 C 112.400 26.069,111.815 26.003,111.100 26.006 C 110.216 26.010,109.974 26.123,110.344 26.357 M113.078 26.256 C 112.704 26.629,113.155 27.200,113.824 27.200 C 114.141 27.200,114.400 26.930,114.400 26.600 C 114.400 25.998,113.556 25.778,113.078 26.256 M287.149 26.700 C 286.671 27.309,286.678 27.340,287.200 26.935 C 287.530 26.680,288.340 26.392,289.000 26.295 L 290.200 26.120 288.949 26.060 C 288.177 26.023,287.488 26.268,287.149 26.700 M292.344 26.357 C 292.841 26.672,294.400 26.517,294.400 26.153 C 294.400 26.069,293.815 26.003,293.100 26.006 C 292.216 26.010,291.974 26.123,292.344 26.357 M295.149 26.700 C 294.652 27.334,294.666 27.348,295.298 26.853 C 295.682 26.552,296.357 26.400,296.798 26.515 C 297.240 26.631,297.500 26.562,297.377 26.363 C 297.005 25.761,295.734 25.954,295.149 26.700 M94.238 27.356 C 94.366 27.687,94.778 27.826,95.260 27.700 C 95.877 27.539,95.942 27.409,95.534 27.151 C 94.708 26.627,94.002 26.739,94.238 27.356 M276.400 27.262 C 276.400 27.422,276.580 27.664,276.800 27.800 C 277.020 27.936,277.200 27.846,277.200 27.600 C 277.200 27.354,277.380 27.264,277.600 27.400 C 277.820 27.536,278.000 27.468,278.000 27.248 C 278.000 27.029,277.640 26.877,277.200 26.910 C 276.760 26.943,276.400 27.101,276.400 27.262 M131.200 28.798 C 131.200 29.451,132.715 30.062,133.038 29.539 C 133.215 29.252,133.148 29.185,132.862 29.362 C 132.608 29.519,132.400 29.476,132.400 29.266 C 132.400 29.057,132.130 28.782,131.800 28.655 C 131.470 28.529,131.200 28.593,131.200 28.798 M267.600 29.000 C 266.658 29.538,266.649 29.572,267.451 29.586 C 267.919 29.594,268.526 29.330,268.800 29.000 C 269.421 28.251,268.910 28.251,267.600 29.000 M244.412 37.786 C 244.135 38.119,243.750 38.293,243.555 38.172 C 243.360 38.051,243.200 38.143,243.200 38.376 C 243.200 38.609,243.335 38.794,243.500 38.787 C 244.014 38.765,245.353 37.620,245.128 37.394 C 245.010 37.277,244.688 37.453,244.412 37.786 M155.376 38.213 C 155.804 38.536,156.344 38.794,156.576 38.787 C 156.809 38.780,156.651 38.510,156.224 38.187 C 155.796 37.864,155.256 37.606,155.024 37.613 C 154.791 37.620,154.949 37.890,155.376 38.213 M234.400 43.200 C 233.915 43.514,233.972 43.589,234.700 43.594 C 235.195 43.597,235.600 43.420,235.600 43.200 C 235.600 42.699,235.176 42.699,234.400 43.200 M351.261 45.818 C 351.624 46.189,352.140 46.420,352.406 46.331 C 352.673 46.242,352.375 45.939,351.745 45.656 C 350.673 45.176,350.642 45.186,351.261 45.818 M230.300 46.276 C 229.915 46.376,229.600 46.636,229.600 46.853 C 229.600 47.070,229.765 47.145,229.966 47.021 C 230.167 46.897,230.405 47.016,230.496 47.287 C 230.586 47.558,230.764 47.379,230.892 46.890 C 231.020 46.400,231.097 46.021,231.063 46.046 C 231.028 46.072,230.685 46.175,230.300 46.276 M355.062 48.583 C 354.892 49.026,355.076 49.198,355.713 49.194 C 356.201 49.191,356.420 49.053,356.200 48.889 C 355.980 48.725,355.687 48.450,355.549 48.278 C 355.412 48.106,355.192 48.243,355.062 48.583 M177.633 53.713 C 177.725 53.775,178.085 54.043,178.433 54.307 C 178.942 54.693,179.067 54.671,179.067 54.194 C 179.067 53.867,178.707 53.600,178.267 53.600 C 177.827 53.600,177.542 53.651,177.633 53.713 M184.639 60.156 C 184.761 60.476,185.144 60.846,185.488 60.978 C 186.463 61.352,186.414 61.069,185.368 60.287 C 184.651 59.750,184.470 59.718,184.639 60.156 M214.800 60.000 C 214.483 60.196,214.356 60.489,214.518 60.652 C 214.681 60.814,215.023 60.737,215.280 60.480 C 215.884 59.876,215.547 59.538,214.800 60.000 M30.957 61.433 C 31.091 61.781,31.203 62.186,31.206 62.333 C 31.214 62.691,31.986 61.483,31.994 61.100 C 31.997 60.935,31.711 60.800,31.357 60.800 C 30.935 60.800,30.798 61.018,30.957 61.433 M368.816 60.887 C 368.807 61.044,369.405 61.778,370.143 62.517 C 370.882 63.256,371.578 64.117,371.689 64.430 C 371.800 64.744,372.011 64.889,372.159 64.753 C 372.306 64.618,371.618 63.628,370.629 62.553 C 369.641 61.479,368.825 60.729,368.816 60.887 M187.501 62.995 C 187.606 63.543,187.851 63.892,188.047 63.771 C 188.248 63.647,188.222 63.215,187.987 62.776 C 187.427 61.730,187.273 61.800,187.501 62.995 M27.848 64.610 C 27.054 65.403,27.050 65.467,27.782 65.467 C 28.103 65.467,28.282 65.332,28.180 65.167 C 28.078 65.003,28.221 64.788,28.498 64.689 C 28.774 64.590,28.886 64.386,28.748 64.236 C 28.609 64.085,28.204 64.253,27.848 64.610 M19.300 76.688 C 19.025 76.786,18.800 77.135,18.800 77.462 C 18.800 77.967,18.898 77.959,19.448 77.410 C 20.152 76.706,20.090 76.406,19.300 76.688 M384.244 81.929 C 384.031 82.273,384.964 84.313,385.649 85.000 C 386.159 85.512,385.667 84.125,384.929 82.968 C 384.636 82.511,384.518 82.016,384.665 81.868 C 384.813 81.721,384.824 81.600,384.690 81.600 C 384.557 81.600,384.356 81.748,384.244 81.929 M393.891 105.175 C 393.751 105.711,393.857 105.876,394.245 105.727 C 394.875 105.486,394.972 104.954,394.445 104.628 C 394.250 104.508,394.001 104.754,393.891 105.175 M397.449 117.100 C 397.828 118.681,398.040 118.760,397.927 117.279 C 397.874 116.576,397.685 116.000,397.507 116.000 C 397.330 116.000,397.304 116.495,397.449 117.100 M0.400 128.176 C 0.400 129.402,0.628 129.501,0.916 128.400 C 1.031 127.961,0.962 127.500,0.762 127.377 C 0.563 127.254,0.400 127.613,0.400 128.176 M390.243 191.833 C 390.093 192.223,390.182 192.406,390.475 192.308 C 391.073 192.109,391.402 191.200,390.876 191.200 C 390.661 191.200,390.376 191.485,390.243 191.833 M385.308 202.379 C 385.340 202.802,385.582 203.028,385.882 202.913 C 386.567 202.650,386.540 202.139,385.827 201.866 C 385.448 201.720,385.272 201.895,385.308 202.379 M376.402 218.000 C 376.033 219.204,376.052 220.129,376.433 219.485 C 376.666 219.092,376.768 218.552,376.660 218.285 C 376.552 218.018,376.436 217.890,376.402 218.000 M360.026 242.169 C 359.639 242.635,359.702 242.698,360.377 242.522 C 360.830 242.404,361.200 242.148,361.200 241.953 C 361.200 241.414,360.554 241.532,360.026 242.169 M39.251 243.098 C 40.230 244.344,40.834 244.899,41.015 244.719 C 41.112 244.621,40.844 244.169,40.420 243.713 C 39.995 243.258,39.757 242.776,39.891 242.643 C 40.024 242.509,39.811 242.400,39.418 242.400 C 38.794 242.400,38.772 242.490,39.251 243.098 M357.002 246.398 C 356.603 246.839,356.462 247.200,356.689 247.200 C 357.192 247.200,358.190 246.057,357.921 245.788 C 357.815 245.682,357.402 245.956,357.002 246.398 M42.000 246.600 C 42.000 246.930,42.292 247.200,42.649 247.200 C 43.180 247.200,43.208 247.091,42.800 246.600 C 42.526 246.270,42.234 246.000,42.151 246.000 C 42.068 246.000,42.000 246.270,42.000 246.600 M334.196 272.407 C 334.058 272.630,333.732 272.691,333.472 272.542 C 333.213 272.394,333.133 272.419,333.297 272.599 C 333.460 272.779,333.389 273.172,333.140 273.473 C 332.890 273.773,332.757 274.081,332.843 274.157 C 332.929 274.233,333.419 273.778,333.930 273.147 C 334.442 272.516,334.768 272.000,334.654 272.000 C 334.540 272.000,334.334 272.183,334.196 272.407 M326.639 279.138 C 326.500 279.361,326.582 279.665,326.820 279.812 C 327.435 280.193,327.832 279.672,327.318 279.158 C 327.031 278.871,326.807 278.864,326.639 279.138 M324.946 281.398 C 324.819 281.726,324.555 281.896,324.358 281.774 C 324.161 281.652,324.000 281.811,324.000 282.128 C 324.000 282.444,323.595 282.985,323.100 283.330 C 322.605 283.676,322.380 283.963,322.600 283.970 C 323.036 283.982,326.000 281.428,326.000 281.039 C 326.000 280.542,325.165 280.826,324.946 281.398 M77.477 284.772 C 77.588 285.197,77.932 285.642,78.241 285.760 C 78.681 285.929,78.662 285.761,78.155 284.988 C 77.376 283.799,77.208 283.745,77.477 284.772 M97.427 302.756 C 97.306 302.952,97.700 303.413,98.303 303.780 L 99.400 304.447 98.517 303.673 C 98.031 303.248,97.746 302.787,97.884 302.650 C 98.021 302.512,98.024 302.400,97.890 302.400 C 97.757 302.400,97.548 302.560,97.427 302.756 M102.744 307.576 C 103.264 308.029,103.879 308.400,104.111 308.400 C 104.603 308.400,104.579 308.380,103.000 307.455 L 101.800 306.753 102.744 307.576 M112.000 314.632 C 112.000 314.974,113.273 315.970,113.733 315.987 C 113.917 315.994,113.992 315.775,113.900 315.500 C 113.808 315.225,113.568 314.997,113.367 314.994 C 113.165 314.991,112.775 314.845,112.500 314.670 C 112.225 314.496,112.000 314.479,112.000 314.632 M115.681 317.541 C 115.256 317.811,115.256 317.943,115.681 318.273 C 116.470 318.885,117.680 319.254,117.397 318.795 C 117.263 318.578,116.899 318.400,116.589 318.400 C 116.252 318.400,116.118 318.158,116.255 317.800 C 116.517 317.119,116.417 317.074,115.681 317.541 M281.600 319.485 C 281.600 320.155,281.921 320.137,282.633 319.425 C 283.133 318.924,283.103 318.857,282.404 318.910 C 281.962 318.943,281.600 319.202,281.600 319.485 M257.000 338.001 C 256.845 338.250,256.506 338.373,256.245 338.273 C 255.983 338.172,255.771 338.428,255.771 338.845 C 255.771 339.260,255.873 339.600,255.997 339.600 C 256.364 339.600,257.674 337.941,257.469 337.735 C 257.365 337.632,257.154 337.751,257.000 338.001 M253.400 340.800 C 252.740 341.237,252.380 341.592,252.600 341.588 C 253.001 341.582,255.176 340.023,254.800 340.012 C 254.690 340.008,254.060 340.363,253.400 340.800 M251.029 342.229 C 250.605 342.538,250.336 342.869,250.430 342.963 C 250.524 343.057,250.948 342.881,251.371 342.571 C 251.795 342.262,252.064 341.931,251.970 341.837 C 251.876 341.743,251.452 341.919,251.029 342.229 M231.773 355.244 C 231.388 355.867,231.858 356.119,232.614 355.696 C 233.216 355.359,233.220 355.293,232.657 355.077 C 232.310 354.944,231.912 355.019,231.773 355.244 M168.255 356.200 C 168.467 356.753,168.945 356.967,169.700 356.847 C 169.865 356.821,170.000 357.010,170.000 357.267 C 170.000 357.523,170.119 357.614,170.264 357.469 C 170.614 357.119,169.221 355.600,168.551 355.600 C 168.248 355.600,168.123 355.854,168.255 356.200 M229.502 356.701 C 229.779 356.793,229.892 357.051,229.754 357.274 C 229.562 357.584,230.924 357.068,231.500 356.612 C 231.555 356.569,231.015 356.533,230.300 356.533 C 229.585 356.533,229.226 356.609,229.502 356.701 M179.448 363.122 C 179.325 363.321,179.639 363.672,180.146 363.903 C 180.869 364.232,181.067 364.201,181.067 363.761 C 181.067 363.452,180.978 363.288,180.870 363.397 C 180.762 363.505,180.448 363.406,180.172 363.177 C 179.885 362.938,179.576 362.915,179.448 363.122 M201.580 373.424 C 201.241 373.832,201.233 374.000,201.551 374.000 C 201.798 374.000,202.000 373.826,202.000 373.613 C 202.000 373.399,202.270 373.329,202.600 373.455 C 202.930 373.582,203.200 373.596,203.200 373.486 C 203.200 372.960,202.003 372.914,201.580 373.424 " stroke="none" fill="#f07ca4" fill-rule="evenodd"></path><path id="path3" d="M103.300 26.276 C 103.685 26.376,104.315 26.376,104.700 26.276 C 105.085 26.175,104.770 26.093,104.000 26.093 C 103.230 26.093,102.915 26.175,103.300 26.276 M105.606 26.700 C 105.610 27.150,105.717 27.236,105.906 26.940 C 106.068 26.688,106.650 26.397,107.200 26.295 C 108.047 26.137,108.001 26.101,106.900 26.054 C 105.906 26.013,105.601 26.165,105.606 26.700 M110.344 26.357 C 110.841 26.672,112.400 26.517,112.400 26.153 C 112.400 26.069,111.815 26.003,111.100 26.006 C 110.216 26.010,109.974 26.123,110.344 26.357 M113.078 26.256 C 112.704 26.629,113.155 27.200,113.824 27.200 C 114.141 27.200,114.400 26.930,114.400 26.600 C 114.400 25.998,113.556 25.778,113.078 26.256 M287.149 26.700 C 286.671 27.309,286.678 27.340,287.200 26.935 C 287.530 26.680,288.340 26.392,289.000 26.295 L 290.200 26.120 288.949 26.060 C 288.177 26.023,287.488 26.268,287.149 26.700 M292.344 26.357 C 292.841 26.672,294.400 26.517,294.400 26.153 C 294.400 26.069,293.815 26.003,293.100 26.006 C 292.216 26.010,291.974 26.123,292.344 26.357 M295.149 26.700 C 294.652 27.334,294.666 27.348,295.298 26.853 C 295.682 26.552,296.357 26.400,296.798 26.515 C 297.240 26.631,297.500 26.562,297.377 26.363 C 297.005 25.761,295.734 25.954,295.149 26.700 M94.238 27.356 C 94.366 27.687,94.778 27.826,95.260 27.700 C 95.877 27.539,95.942 27.409,95.534 27.151 C 94.708 26.627,94.002 26.739,94.238 27.356 M276.400 27.262 C 276.400 27.422,276.580 27.664,276.800 27.800 C 277.020 27.936,277.200 27.846,277.200 27.600 C 277.200 27.354,277.380 27.264,277.600 27.400 C 277.820 27.536,278.000 27.468,278.000 27.248 C 278.000 27.029,277.640 26.877,277.200 26.910 C 276.760 26.943,276.400 27.101,276.400 27.262 M131.200 28.798 C 131.200 29.451,132.715 30.062,133.038 29.539 C 133.215 29.252,133.148 29.185,132.862 29.362 C 132.608 29.519,132.400 29.476,132.400 29.266 C 132.400 29.057,132.130 28.782,131.800 28.655 C 131.470 28.529,131.200 28.593,131.200 28.798 M267.600 29.000 C 266.658 29.538,266.649 29.572,267.451 29.586 C 267.919 29.594,268.526 29.330,268.800 29.000 C 269.421 28.251,268.910 28.251,267.600 29.000 M244.412 37.786 C 244.135 38.119,243.750 38.293,243.555 38.172 C 243.360 38.051,243.200 38.143,243.200 38.376 C 243.200 38.609,243.335 38.794,243.500 38.787 C 244.014 38.765,245.353 37.620,245.128 37.394 C 245.010 37.277,244.688 37.453,244.412 37.786 M155.376 38.213 C 155.804 38.536,156.344 38.794,156.576 38.787 C 156.809 38.780,156.651 38.510,156.224 38.187 C 155.796 37.864,155.256 37.606,155.024 37.613 C 154.791 37.620,154.949 37.890,155.376 38.213 M234.400 43.200 C 233.915 43.514,233.972 43.589,234.700 43.594 C 235.195 43.597,235.600 43.420,235.600 43.200 C 235.600 42.699,235.176 42.699,234.400 43.200 M351.261 45.818 C 351.624 46.189,352.140 46.420,352.406 46.331 C 352.673 46.242,352.375 45.939,351.745 45.656 C 350.673 45.176,350.642 45.186,351.261 45.818 M230.300 46.276 C 229.915 46.376,229.600 46.636,229.600 46.853 C 229.600 47.070,229.765 47.145,229.966 47.021 C 230.167 46.897,230.405 47.016,230.496 47.287 C 230.586 47.558,230.764 47.379,230.892 46.890 C 231.020 46.400,231.097 46.021,231.063 46.046 C 231.028 46.072,230.685 46.175,230.300 46.276 M355.062 48.583 C 354.892 49.026,355.076 49.198,355.713 49.194 C 356.201 49.191,356.420 49.053,356.200 48.889 C 355.980 48.725,355.687 48.450,355.549 48.278 C 355.412 48.106,355.192 48.243,355.062 48.583 M177.633 53.713 C 177.725 53.775,178.085 54.043,178.433 54.307 C 178.942 54.693,179.067 54.671,179.067 54.194 C 179.067 53.867,178.707 53.600,178.267 53.600 C 177.827 53.600,177.542 53.651,177.633 53.713 M184.639 60.156 C 184.761 60.476,185.144 60.846,185.488 60.978 C 186.463 61.352,186.414 61.069,185.368 60.287 C 184.651 59.750,184.470 59.718,184.639 60.156 M214.800 60.000 C 214.483 60.196,214.356 60.489,214.518 60.652 C 214.681 60.814,215.023 60.737,215.280 60.480 C 215.884 59.876,215.547 59.538,214.800 60.000 M30.957 61.433 C 31.091 61.781,31.203 62.186,31.206 62.333 C 31.214 62.691,31.986 61.483,31.994 61.100 C 31.997 60.935,31.711 60.800,31.357 60.800 C 30.935 60.800,30.798 61.018,30.957 61.433 M368.816 60.887 C 368.807 61.044,369.405 61.778,370.143 62.517 C 370.882 63.256,371.578 64.117,371.689 64.430 C 371.800 64.744,372.011 64.889,372.159 64.753 C 372.306 64.618,371.618 63.628,370.629 62.553 C 369.641 61.479,368.825 60.729,368.816 60.887 M187.501 62.995 C 187.606 63.543,187.851 63.892,188.047 63.771 C 188.248 63.647,188.222 63.215,187.987 62.776 C 187.427 61.730,187.273 61.800,187.501 62.995 M27.848 64.610 C 27.054 65.403,27.050 65.467,27.782 65.467 C 28.103 65.467,28.282 65.332,28.180 65.167 C 28.078 65.003,28.221 64.788,28.498 64.689 C 28.774 64.590,28.886 64.386,28.748 64.236 C 28.609 64.085,28.204 64.253,27.848 64.610 M19.300 76.688 C 19.025 76.786,18.800 77.135,18.800 77.462 C 18.800 77.967,18.898 77.959,19.448 77.410 C 20.152 76.706,20.090 76.406,19.300 76.688 M384.244 81.929 C 384.031 82.273,384.964 84.313,385.649 85.000 C 386.159 85.512,385.667 84.125,384.929 82.968 C 384.636 82.511,384.518 82.016,384.665 81.868 C 384.813 81.721,384.824 81.600,384.690 81.600 C 384.557 81.600,384.356 81.748,384.244 81.929 M393.891 105.175 C 393.751 105.711,393.857 105.876,394.245 105.727 C 394.875 105.486,394.972 104.954,394.445 104.628 C 394.250 104.508,394.001 104.754,393.891 105.175 M397.449 117.100 C 397.828 118.681,398.040 118.760,397.927 117.279 C 397.874 116.576,397.685 116.000,397.507 116.000 C 397.330 116.000,397.304 116.495,397.449 117.100 M0.400 128.176 C 0.400 129.402,0.628 129.501,0.916 128.400 C 1.031 127.961,0.962 127.500,0.762 127.377 C 0.563 127.254,0.400 127.613,0.400 128.176 M390.243 191.833 C 390.093 192.223,390.182 192.406,390.475 192.308 C 391.073 192.109,391.402 191.200,390.876 191.200 C 390.661 191.200,390.376 191.485,390.243 191.833 M385.308 202.379 C 385.340 202.802,385.582 203.028,385.882 202.913 C 386.567 202.650,386.540 202.139,385.827 201.866 C 385.448 201.720,385.272 201.895,385.308 202.379 M376.402 218.000 C 376.033 219.204,376.052 220.129,376.433 219.485 C 376.666 219.092,376.768 218.552,376.660 218.285 C 376.552 218.018,376.436 217.890,376.402 218.000 M360.026 242.169 C 359.639 242.635,359.702 242.698,360.377 242.522 C 360.830 242.404,361.200 242.148,361.200 241.953 C 361.200 241.414,360.554 241.532,360.026 242.169 M39.251 243.098 C 40.230 244.344,40.834 244.899,41.015 244.719 C 41.112 244.621,40.844 244.169,40.420 243.713 C 39.995 243.258,39.757 242.776,39.891 242.643 C 40.024 242.509,39.811 242.400,39.418 242.400 C 38.794 242.400,38.772 242.490,39.251 243.098 M357.002 246.398 C 356.603 246.839,356.462 247.200,356.689 247.200 C 357.192 247.200,358.190 246.057,357.921 245.788 C 357.815 245.682,357.402 245.956,357.002 246.398 M42.000 246.600 C 42.000 246.930,42.292 247.200,42.649 247.200 C 43.180 247.200,43.208 247.091,42.800 246.600 C 42.526 246.270,42.234 246.000,42.151 246.000 C 42.068 246.000,42.000 246.270,42.000 246.600 M334.196 272.407 C 334.058 272.630,333.732 272.691,333.472 272.542 C 333.213 272.394,333.133 272.419,333.297 272.599 C 333.460 272.779,333.389 273.172,333.140 273.473 C 332.890 273.773,332.757 274.081,332.843 274.157 C 332.929 274.233,333.419 273.778,333.930 273.147 C 334.442 272.516,334.768 272.000,334.654 272.000 C 334.540 272.000,334.334 272.183,334.196 272.407 M326.639 279.138 C 326.500 279.361,326.582 279.665,326.820 279.812 C 327.435 280.193,327.832 279.672,327.318 279.158 C 327.031 278.871,326.807 278.864,326.639 279.138 M324.946 281.398 C 324.819 281.726,324.555 281.896,324.358 281.774 C 324.161 281.652,324.000 281.811,324.000 282.128 C 324.000 282.444,323.595 282.985,323.100 283.330 C 322.605 283.676,322.380 283.963,322.600 283.970 C 323.036 283.982,326.000 281.428,326.000 281.039 C 326.000 280.542,325.165 280.826,324.946 281.398 M77.477 284.772 C 77.588 285.197,77.932 285.642,78.241 285.760 C 78.681 285.929,78.662 285.761,78.155 284.988 C 77.376 283.799,77.208 283.745,77.477 284.772 M97.427 302.756 C 97.306 302.952,97.700 303.413,98.303 303.780 L 99.400 304.447 98.517 303.673 C 98.031 303.248,97.746 302.787,97.884 302.650 C 98.021 302.512,98.024 302.400,97.890 302.400 C 97.757 302.400,97.548 302.560,97.427 302.756 M102.744 307.576 C 103.264 308.029,103.879 308.400,104.111 308.400 C 104.603 308.400,104.579 308.380,103.000 307.455 L 101.800 306.753 102.744 307.576 M112.000 314.632 C 112.000 314.974,113.273 315.970,113.733 315.987 C 113.917 315.994,113.992 315.775,113.900 315.500 C 113.808 315.225,113.568 314.997,113.367 314.994 C 113.165 314.991,112.775 314.845,112.500 314.670 C 112.225 314.496,112.000 314.479,112.000 314.632 M115.681 317.541 C 115.256 317.811,115.256 317.943,115.681 318.273 C 116.470 318.885,117.680 319.254,117.397 318.795 C 117.263 318.578,116.899 318.400,116.589 318.400 C 116.252 318.400,116.118 318.158,116.255 317.800 C 116.517 317.119,116.417 317.074,115.681 317.541 M281.600 319.485 C 281.600 320.155,281.921 320.137,282.633 319.425 C 283.133 318.924,283.103 318.857,282.404 318.910 C 281.962 318.943,281.600 319.202,281.600 319.485 M257.000 338.001 C 256.845 338.250,256.506 338.373,256.245 338.273 C 255.983 338.172,255.771 338.428,255.771 338.845 C 255.771 339.260,255.873 339.600,255.997 339.600 C 256.364 339.600,257.674 337.941,257.469 337.735 C 257.365 337.632,257.154 337.751,257.000 338.001 M253.400 340.800 C 252.740 341.237,252.380 341.592,252.600 341.588 C 253.001 341.582,255.176 340.023,254.800 340.012 C 254.690 340.008,254.060 340.363,253.400 340.800 M251.029 342.229 C 250.605 342.538,250.336 342.869,250.430 342.963 C 250.524 343.057,250.948 342.881,251.371 342.571 C 251.795 342.262,252.064 341.931,251.970 341.837 C 251.876 341.743,251.452 341.919,251.029 342.229 M231.773 355.244 C 231.388 355.867,231.858 356.119,232.614 355.696 C 233.216 355.359,233.220 355.293,232.657 355.077 C 232.310 354.944,231.912 355.019,231.773 355.244 M168.255 356.200 C 168.467 356.753,168.945 356.967,169.700 356.847 C 169.865 356.821,170.000 357.010,170.000 357.267 C 170.000 357.523,170.119 357.614,170.264 357.469 C 170.614 357.119,169.221 355.600,168.551 355.600 C 168.248 355.600,168.123 355.854,168.255 356.200 M229.502 356.701 C 229.779 356.793,229.892 357.051,229.754 357.274 C 229.562 357.584,230.924 357.068,231.500 356.612 C 231.555 356.569,231.015 356.533,230.300 356.533 C 229.585 356.533,229.226 356.609,229.502 356.701 M179.448 363.122 C 179.325 363.321,179.639 363.672,180.146 363.903 C 180.869 364.232,181.067 364.201,181.067 363.761 C 181.067 363.452,180.978 363.288,180.870 363.397 C 180.762 363.505,180.448 363.406,180.172 363.177 C 179.885 362.938,179.576 362.915,179.448 363.122 M201.580 373.424 C 201.241 373.832,201.233 374.000,201.551 374.000 C 201.798 374.000,202.000 373.826,202.000 373.613 C 202.000 373.399,202.270 373.329,202.600 373.455 C 202.930 373.582,203.200 373.596,203.200 373.486 C 203.200 372.960,202.003 372.914,201.580 373.424 " stroke="none" fill="#f07ca4" fill-rule="evenodd"></path><path id="path4" d="M103.300 26.276 C 103.685 26.376,104.315 26.376,104.700 26.276 C 105.085 26.175,104.770 26.093,104.000 26.093 C 103.230 26.093,102.915 26.175,103.300 26.276 M105.606 26.700 C 105.610 27.150,105.717 27.236,105.906 26.940 C 106.068 26.688,106.650 26.397,107.200 26.295 C 108.047 26.137,108.001 26.101,106.900 26.054 C 105.906 26.013,105.601 26.165,105.606 26.700 M110.344 26.357 C 110.841 26.672,112.400 26.517,112.400 26.153 C 112.400 26.069,111.815 26.003,111.100 26.006 C 110.216 26.010,109.974 26.123,110.344 26.357 M113.078 26.256 C 112.704 26.629,113.155 27.200,113.824 27.200 C 114.141 27.200,114.400 26.930,114.400 26.600 C 114.400 25.998,113.556 25.778,113.078 26.256 M287.149 26.700 C 286.671 27.309,286.678 27.340,287.200 26.935 C 287.530 26.680,288.340 26.392,289.000 26.295 L 290.200 26.120 288.949 26.060 C 288.177 26.023,287.488 26.268,287.149 26.700 M292.344 26.357 C 292.841 26.672,294.400 26.517,294.400 26.153 C 294.400 26.069,293.815 26.003,293.100 26.006 C 292.216 26.010,291.974 26.123,292.344 26.357 M295.149 26.700 C 294.652 27.334,294.666 27.348,295.298 26.853 C 295.682 26.552,296.357 26.400,296.798 26.515 C 297.240 26.631,297.500 26.562,297.377 26.363 C 297.005 25.761,295.734 25.954,295.149 26.700 M94.238 27.356 C 94.366 27.687,94.778 27.826,95.260 27.700 C 95.877 27.539,95.942 27.409,95.534 27.151 C 94.708 26.627,94.002 26.739,94.238 27.356 M276.400 27.262 C 276.400 27.422,276.580 27.664,276.800 27.800 C 277.020 27.936,277.200 27.846,277.200 27.600 C 277.200 27.354,277.380 27.264,277.600 27.400 C 277.820 27.536,278.000 27.468,278.000 27.248 C 278.000 27.029,277.640 26.877,277.200 26.910 C 276.760 26.943,276.400 27.101,276.400 27.262 M131.200 28.798 C 131.200 29.451,132.715 30.062,133.038 29.539 C 133.215 29.252,133.148 29.185,132.862 29.362 C 132.608 29.519,132.400 29.476,132.400 29.266 C 132.400 29.057,132.130 28.782,131.800 28.655 C 131.470 28.529,131.200 28.593,131.200 28.798 M267.600 29.000 C 266.658 29.538,266.649 29.572,267.451 29.586 C 267.919 29.594,268.526 29.330,268.800 29.000 C 269.421 28.251,268.910 28.251,267.600 29.000 M244.412 37.786 C 244.135 38.119,243.750 38.293,243.555 38.172 C 243.360 38.051,243.200 38.143,243.200 38.376 C 243.200 38.609,243.335 38.794,243.500 38.787 C 244.014 38.765,245.353 37.620,245.128 37.394 C 245.010 37.277,244.688 37.453,244.412 37.786 M155.376 38.213 C 155.804 38.536,156.344 38.794,156.576 38.787 C 156.809 38.780,156.651 38.510,156.224 38.187 C 155.796 37.864,155.256 37.606,155.024 37.613 C 154.791 37.620,154.949 37.890,155.376 38.213 M234.400 43.200 C 233.915 43.514,233.972 43.589,234.700 43.594 C 235.195 43.597,235.600 43.420,235.600 43.200 C 235.600 42.699,235.176 42.699,234.400 43.200 M351.261 45.818 C 351.624 46.189,352.140 46.420,352.406 46.331 C 352.673 46.242,352.375 45.939,351.745 45.656 C 350.673 45.176,350.642 45.186,351.261 45.818 M230.300 46.276 C 229.915 46.376,229.600 46.636,229.600 46.853 C 229.600 47.070,229.765 47.145,229.966 47.021 C 230.167 46.897,230.405 47.016,230.496 47.287 C 230.586 47.558,230.764 47.379,230.892 46.890 C 231.020 46.400,231.097 46.021,231.063 46.046 C 231.028 46.072,230.685 46.175,230.300 46.276 M355.062 48.583 C 354.892 49.026,355.076 49.198,355.713 49.194 C 356.201 49.191,356.420 49.053,356.200 48.889 C 355.980 48.725,355.687 48.450,355.549 48.278 C 355.412 48.106,355.192 48.243,355.062 48.583 M177.633 53.713 C 177.725 53.775,178.085 54.043,178.433 54.307 C 178.942 54.693,179.067 54.671,179.067 54.194 C 179.067 53.867,178.707 53.600,178.267 53.600 C 177.827 53.600,177.542 53.651,177.633 53.713 M184.639 60.156 C 184.761 60.476,185.144 60.846,185.488 60.978 C 186.463 61.352,186.414 61.069,185.368 60.287 C 184.651 59.750,184.470 59.718,184.639 60.156 M214.800 60.000 C 214.483 60.196,214.356 60.489,214.518 60.652 C 214.681 60.814,215.023 60.737,215.280 60.480 C 215.884 59.876,215.547 59.538,214.800 60.000 M30.957 61.433 C 31.091 61.781,31.203 62.186,31.206 62.333 C 31.214 62.691,31.986 61.483,31.994 61.100 C 31.997 60.935,31.711 60.800,31.357 60.800 C 30.935 60.800,30.798 61.018,30.957 61.433 M368.816 60.887 C 368.807 61.044,369.405 61.778,370.143 62.517 C 370.882 63.256,371.578 64.117,371.689 64.430 C 371.800 64.744,372.011 64.889,372.159 64.753 C 372.306 64.618,371.618 63.628,370.629 62.553 C 369.641 61.479,368.825 60.729,368.816 60.887 M187.501 62.995 C 187.606 63.543,187.851 63.892,188.047 63.771 C 188.248 63.647,188.222 63.215,187.987 62.776 C 187.427 61.730,187.273 61.800,187.501 62.995 M27.848 64.610 C 27.054 65.403,27.050 65.467,27.782 65.467 C 28.103 65.467,28.282 65.332,28.180 65.167 C 28.078 65.003,28.221 64.788,28.498 64.689 C 28.774 64.590,28.886 64.386,28.748 64.236 C 28.609 64.085,28.204 64.253,27.848 64.610 M19.300 76.688 C 19.025 76.786,18.800 77.135,18.800 77.462 C 18.800 77.967,18.898 77.959,19.448 77.410 C 20.152 76.706,20.090 76.406,19.300 76.688 M384.244 81.929 C 384.031 82.273,384.964 84.313,385.649 85.000 C 386.159 85.512,385.667 84.125,384.929 82.968 C 384.636 82.511,384.518 82.016,384.665 81.868 C 384.813 81.721,384.824 81.600,384.690 81.600 C 384.557 81.600,384.356 81.748,384.244 81.929 M393.891 105.175 C 393.751 105.711,393.857 105.876,394.245 105.727 C 394.875 105.486,394.972 104.954,394.445 104.628 C 394.250 104.508,394.001 104.754,393.891 105.175 M397.449 117.100 C 397.828 118.681,398.040 118.760,397.927 117.279 C 397.874 116.576,397.685 116.000,397.507 116.000 C 397.330 116.000,397.304 116.495,397.449 117.100 M0.400 128.176 C 0.400 129.402,0.628 129.501,0.916 128.400 C 1.031 127.961,0.962 127.500,0.762 127.377 C 0.563 127.254,0.400 127.613,0.400 128.176 M390.243 191.833 C 390.093 192.223,390.182 192.406,390.475 192.308 C 391.073 192.109,391.402 191.200,390.876 191.200 C 390.661 191.200,390.376 191.485,390.243 191.833 M385.308 202.379 C 385.340 202.802,385.582 203.028,385.882 202.913 C 386.567 202.650,386.540 202.139,385.827 201.866 C 385.448 201.720,385.272 201.895,385.308 202.379 M376.402 218.000 C 376.033 219.204,376.052 220.129,376.433 219.485 C 376.666 219.092,376.768 218.552,376.660 218.285 C 376.552 218.018,376.436 217.890,376.402 218.000 M360.026 242.169 C 359.639 242.635,359.702 242.698,360.377 242.522 C 360.830 242.404,361.200 242.148,361.200 241.953 C 361.200 241.414,360.554 241.532,360.026 242.169 M39.251 243.098 C 40.230 244.344,40.834 244.899,41.015 244.719 C 41.112 244.621,40.844 244.169,40.420 243.713 C 39.995 243.258,39.757 242.776,39.891 242.643 C 40.024 242.509,39.811 242.400,39.418 242.400 C 38.794 242.400,38.772 242.490,39.251 243.098 M357.002 246.398 C 356.603 246.839,356.462 247.200,356.689 247.200 C 357.192 247.200,358.190 246.057,357.921 245.788 C 357.815 245.682,357.402 245.956,357.002 246.398 M42.000 246.600 C 42.000 246.930,42.292 247.200,42.649 247.200 C 43.180 247.200,43.208 247.091,42.800 246.600 C 42.526 246.270,42.234 246.000,42.151 246.000 C 42.068 246.000,42.000 246.270,42.000 246.600 M334.196 272.407 C 334.058 272.630,333.732 272.691,333.472 272.542 C 333.213 272.394,333.133 272.419,333.297 272.599 C 333.460 272.779,333.389 273.172,333.140 273.473 C 332.890 273.773,332.757 274.081,332.843 274.157 C 332.929 274.233,333.419 273.778,333.930 273.147 C 334.442 272.516,334.768 272.000,334.654 272.000 C 334.540 272.000,334.334 272.183,334.196 272.407 M326.639 279.138 C 326.500 279.361,326.582 279.665,326.820 279.812 C 327.435 280.193,327.832 279.672,327.318 279.158 C 327.031 278.871,326.807 278.864,326.639 279.138 M324.946 281.398 C 324.819 281.726,324.555 281.896,324.358 281.774 C 324.161 281.652,324.000 281.811,324.000 282.128 C 324.000 282.444,323.595 282.985,323.100 283.330 C 322.605 283.676,322.380 283.963,322.600 283.970 C 323.036 283.982,326.000 281.428,326.000 281.039 C 326.000 280.542,325.165 280.826,324.946 281.398 M77.477 284.772 C 77.588 285.197,77.932 285.642,78.241 285.760 C 78.681 285.929,78.662 285.761,78.155 284.988 C 77.376 283.799,77.208 283.745,77.477 284.772 M97.427 302.756 C 97.306 302.952,97.700 303.413,98.303 303.780 L 99.400 304.447 98.517 303.673 C 98.031 303.248,97.746 302.787,97.884 302.650 C 98.021 302.512,98.024 302.400,97.890 302.400 C 97.757 302.400,97.548 302.560,97.427 302.756 M102.744 307.576 C 103.264 308.029,103.879 308.400,104.111 308.400 C 104.603 308.400,104.579 308.380,103.000 307.455 L 101.800 306.753 102.744 307.576 M112.000 314.632 C 112.000 314.974,113.273 315.970,113.733 315.987 C 113.917 315.994,113.992 315.775,113.900 315.500 C 113.808 315.225,113.568 314.997,113.367 314.994 C 113.165 314.991,112.775 314.845,112.500 314.670 C 112.225 314.496,112.000 314.479,112.000 314.632 M115.681 317.541 C 115.256 317.811,115.256 317.943,115.681 318.273 C 116.470 318.885,117.680 319.254,117.397 318.795 C 117.263 318.578,116.899 318.400,116.589 318.400 C 116.252 318.400,116.118 318.158,116.255 317.800 C 116.517 317.119,116.417 317.074,115.681 317.541 M281.600 319.485 C 281.600 320.155,281.921 320.137,282.633 319.425 C 283.133 318.924,283.103 318.857,282.404 318.910 C 281.962 318.943,281.600 319.202,281.600 319.485 M257.000 338.001 C 256.845 338.250,256.506 338.373,256.245 338.273 C 255.983 338.172,255.771 338.428,255.771 338.845 C 255.771 339.260,255.873 339.600,255.997 339.600 C 256.364 339.600,257.674 337.941,257.469 337.735 C 257.365 337.632,257.154 337.751,257.000 338.001 M253.400 340.800 C 252.740 341.237,252.380 341.592,252.600 341.588 C 253.001 341.582,255.176 340.023,254.800 340.012 C 254.690 340.008,254.060 340.363,253.400 340.800 M251.029 342.229 C 250.605 342.538,250.336 342.869,250.430 342.963 C 250.524 343.057,250.948 342.881,251.371 342.571 C 251.795 342.262,252.064 341.931,251.970 341.837 C 251.876 341.743,251.452 341.919,251.029 342.229 M231.773 355.244 C 231.388 355.867,231.858 356.119,232.614 355.696 C 233.216 355.359,233.220 355.293,232.657 355.077 C 232.310 354.944,231.912 355.019,231.773 355.244 M168.255 356.200 C 168.467 356.753,168.945 356.967,169.700 356.847 C 169.865 356.821,170.000 357.010,170.000 357.267 C 170.000 357.523,170.119 357.614,170.264 357.469 C 170.614 357.119,169.221 355.600,168.551 355.600 C 168.248 355.600,168.123 355.854,168.255 356.200 M229.502 356.701 C 229.779 356.793,229.892 357.051,229.754 357.274 C 229.562 357.584,230.924 357.068,231.500 356.612 C 231.555 356.569,231.015 356.533,230.300 356.533 C 229.585 356.533,229.226 356.609,229.502 356.701 M179.448 363.122 C 179.325 363.321,179.639 363.672,180.146 363.903 C 180.869 364.232,181.067 364.201,181.067 363.761 C 181.067 363.452,180.978 363.288,180.870 363.397 C 180.762 363.505,180.448 363.406,180.172 363.177 C 179.885 362.938,179.576 362.915,179.448 363.122 M201.580 373.424 C 201.241 373.832,201.233 374.000,201.551 374.000 C 201.798 374.000,202.000 373.826,202.000 373.613 C 202.000 373.399,202.270 373.329,202.600 373.455 C 202.930 373.582,203.200 373.596,203.200 373.486 C 203.200 372.960,202.003 372.914,201.580 373.424 " stroke="none" fill="#f07ca4" fill-rule="evenodd"></path></g></svg>