<?xml version="1.0" standalone="no"?>
<!DOCTYPE svg PUBLIC "-//W3C//DTD SVG 20010904//EN"
 "http://www.w3.org/TR/2001/REC-SVG-20010904/DTD/svg10.dtd">
<svg id="svg" xmlns="http://www.w3.org/2000/svg" xmlns:xlink="http://www.w3.org/1999/xlink" width="20" height="20" viewBox="0, 0, 400,400"><g id="svgg"><path id="path0" d="M18.628 50.261 C -11.363 61.460,-3.611 104.432,28.136 102.968 C 62.574 101.380,62.195 50.849,27.734 49.449 C 23.770 49.288,20.440 49.585,18.628 50.261 M103.277 56.711 C 88.475 64.088,88.734 85.719,103.713 93.095 L 107.422 94.922 246.484 94.922 L 385.547 94.922 389.652 92.647 C 402.131 85.733,403.930 68.843,393.194 59.393 C 387.576 54.447,395.398 54.697,245.661 54.692 L 107.338 54.688 103.277 56.711 M19.531 173.853 C -2.252 179.888,-7.300 209.534,11.289 222.256 C 22.344 229.823,37.514 228.259,46.527 218.623 C 65.149 198.715,45.773 166.582,19.531 173.853 M107.026 180.417 C 89.332 185.800,87.143 209.381,103.516 218.233 L 106.641 219.922 244.807 220.126 C 338.474 220.264,383.943 220.068,385.985 219.519 C 404.387 214.563,404.482 185.606,386.113 180.504 C 382.683 179.552,110.151 179.467,107.026 180.417 M16.415 298.557 C -0.088 305.065,-5.567 328.187,6.221 341.578 C 22.810 360.425,53.516 348.890,53.516 323.812 C 53.516 304.200,34.657 291.364,16.415 298.557 M106.891 305.772 C 89.410 310.505,87.032 335.193,103.277 343.289 L 107.338 345.313 245.661 345.308 C 395.398 345.303,387.576 345.553,393.194 340.607 C 403.930 331.157,402.131 314.267,389.652 307.353 L 385.547 305.078 248.047 304.930 C 139.134 304.813,109.787 304.988,106.891 305.772 " stroke="none" fill="#000000" fill-rule="evenodd"></path></g></svg>