<?xml version="1.0" standalone="no"?>
<!DOCTYPE svg PUBLIC "-//W3C//DTD SVG 20010904//EN"
 "http://www.w3.org/TR/2001/REC-SVG-20010904/DTD/svg10.dtd">
<svg id="svg" xmlns="http://www.w3.org/2000/svg" xmlns:xlink="http://www.w3.org/1999/xlink" width="20" height="20" viewBox="0, 0, 400,400"><g id="svgg"><path id="path0" d="M215.234 28.660 C 127.731 36.296,57.031 110.144,57.031 193.906 L 57.031 199.981 28.512 200.186 L -0.007 200.391 38.086 238.477 L 76.178 276.563 114.453 238.281 L 152.728 200.000 124.179 200.000 L 95.629 200.000 95.866 194.727 C 99.634 110.731,178.799 51.343,260.547 71.186 C 331.107 88.314,375.042 161.296,357.376 232.031 C 335.395 320.042,231.989 360.948,156.641 311.439 L 151.172 307.846 137.695 321.350 C 130.283 328.778,124.219 335.245,124.219 335.722 C 124.219 338.697,152.625 354.839,167.946 360.570 C 280.915 402.829,400.000 320.428,400.000 200.000 C 400.000 99.688,314.103 20.032,215.234 28.660 M217.578 163.253 C 181.091 174.262,181.364 226.152,217.966 236.804 C 240.101 243.246,262.623 228.809,266.546 205.664 C 271.131 178.604,244.150 155.235,217.578 163.253 " stroke="none" fill="#000000" fill-rule="evenodd"></path></g></svg>