<?xml version="1.0" standalone="no"?>
<!DOCTYPE svg PUBLIC "-//W3C//DTD SVG 20010904//EN"
 "http://www.w3.org/TR/2001/REC-SVG-20010904/DTD/svg10.dtd">
<svg id="svg" version="1.1" xmlns="http://www.w3.org/2000/svg" xmlns:xlink="http://www.w3.org/1999/xlink" width="20" height="20" viewBox="0, 0, 400,400"><g id="svgg"><path id="path0" d="M197.200 30.400 C 196.870 30.613,196.283 30.791,195.896 30.794 C 193.886 30.811,189.570 33.804,189.010 35.568 C 188.865 36.026,188.578 36.400,188.373 36.400 C 188.168 36.400,188.000 36.760,188.000 37.200 C 188.000 37.640,187.820 38.000,187.600 38.000 C 187.380 38.000,187.200 38.360,187.200 38.800 C 187.200 39.240,187.020 39.600,186.800 39.600 C 186.580 39.600,186.400 39.960,186.400 40.400 C 186.400 40.840,186.241 41.200,186.047 41.200 C 185.699 41.200,185.069 42.702,185.160 43.311 C 185.186 43.482,184.936 43.727,184.604 43.854 C 184.272 43.981,184.000 44.426,184.000 44.843 C 184.000 45.259,183.820 45.600,183.600 45.600 C 183.380 45.600,183.200 45.960,183.200 46.400 C 183.200 46.840,183.020 47.200,182.800 47.200 C 182.580 47.200,182.400 47.560,182.400 48.000 C 182.400 48.440,182.220 48.800,182.000 48.800 C 181.780 48.800,181.600 49.160,181.600 49.600 C 181.600 50.040,181.420 50.400,181.200 50.400 C 180.980 50.400,180.800 50.760,180.800 51.200 C 180.800 51.640,180.599 52.000,180.353 52.000 C 180.097 52.000,179.985 52.411,180.091 52.963 C 180.223 53.654,180.123 53.868,179.738 53.721 C 179.392 53.588,179.200 53.816,179.200 54.357 C 179.200 54.821,179.009 55.200,178.776 55.200 C 178.543 55.200,178.455 55.365,178.580 55.568 C 178.705 55.770,178.536 56.207,178.204 56.539 C 177.872 56.871,177.600 57.415,177.600 57.748 C 177.600 58.081,177.428 58.459,177.217 58.589 C 177.007 58.719,176.927 59.067,177.040 59.361 C 177.153 59.656,176.969 60.003,176.630 60.133 C 176.242 60.282,176.111 60.623,176.275 61.050 C 176.467 61.551,176.394 61.644,176.000 61.400 C 175.614 61.161,175.532 61.246,175.707 61.701 C 175.846 62.065,175.706 62.427,175.375 62.554 C 175.059 62.676,174.800 63.141,174.800 63.587 C 174.800 64.034,174.620 64.400,174.400 64.400 C 174.180 64.400,174.000 64.760,174.000 65.200 C 174.000 65.640,173.820 66.000,173.600 66.000 C 173.380 66.000,173.200 66.360,173.200 66.800 C 173.200 67.240,173.020 67.600,172.800 67.600 C 172.580 67.600,172.400 67.960,172.400 68.400 C 172.400 68.840,172.220 69.200,172.000 69.200 C 171.780 69.200,171.600 69.427,171.600 69.704 C 171.600 69.982,170.885 71.647,170.010 73.404 C 169.136 75.162,168.416 76.825,168.410 77.100 C 168.405 77.375,168.220 77.600,168.000 77.600 C 167.780 77.600,167.600 77.960,167.600 78.400 C 167.600 78.840,167.420 79.200,167.200 79.200 C 166.980 79.200,166.800 79.560,166.800 80.000 C 166.800 80.440,166.620 80.800,166.400 80.800 C 166.180 80.800,166.000 81.034,166.000 81.320 C 166.000 82.056,165.059 83.993,164.700 83.997 C 164.535 83.999,164.400 84.461,164.400 85.024 C 164.400 85.604,164.227 85.940,164.000 85.800 C 163.780 85.664,163.600 85.923,163.600 86.376 C 163.600 86.829,163.420 87.200,163.200 87.200 C 162.980 87.200,162.800 87.560,162.800 88.000 C 162.800 88.440,162.620 88.800,162.400 88.800 C 162.180 88.800,162.000 89.160,162.000 89.600 C 162.000 90.040,161.820 90.400,161.600 90.400 C 161.380 90.400,161.200 90.760,161.200 91.200 C 161.200 91.640,161.020 92.000,160.800 92.000 C 160.580 92.000,160.400 92.360,160.400 92.800 C 160.400 93.240,160.228 93.600,160.018 93.600 C 159.808 93.600,159.518 94.230,159.374 95.000 C 159.229 95.770,158.951 96.400,158.755 96.400 C 158.560 96.400,158.400 96.760,158.400 97.200 C 158.400 97.640,158.220 98.000,158.000 98.000 C 157.780 98.000,157.600 98.360,157.600 98.800 C 157.600 99.240,157.420 99.600,157.200 99.600 C 156.980 99.600,156.800 99.960,156.800 100.400 C 156.800 100.840,156.620 101.200,156.400 101.200 C 156.180 101.200,156.000 101.560,156.000 102.000 C 156.000 102.440,155.820 102.800,155.600 102.800 C 155.380 102.800,155.200 103.160,155.200 103.600 C 155.200 104.040,155.020 104.400,154.800 104.400 C 154.580 104.400,154.400 104.760,154.400 105.200 C 154.400 105.640,154.220 106.000,154.000 106.000 C 153.780 106.000,153.600 106.360,153.600 106.800 C 153.600 107.240,153.420 107.600,153.200 107.600 C 152.980 107.600,152.800 107.960,152.800 108.400 C 152.800 108.840,152.665 109.201,152.500 109.203 C 152.135 109.207,151.200 111.149,151.200 111.903 C 151.200 112.202,151.020 112.336,150.800 112.200 C 150.580 112.064,150.400 112.323,150.400 112.776 C 150.400 113.229,150.220 113.600,150.000 113.600 C 149.780 113.600,149.600 113.960,149.600 114.400 C 149.600 114.840,149.420 115.200,149.200 115.200 C 148.980 115.200,148.800 115.560,148.800 116.000 C 148.800 116.440,148.620 116.800,148.400 116.800 C 148.180 116.800,148.000 117.160,148.000 117.600 C 148.000 118.040,147.820 118.400,147.600 118.400 C 147.380 118.400,147.200 118.760,147.200 119.200 C 147.200 119.640,147.020 120.000,146.800 120.000 C 146.580 120.000,146.400 120.360,146.400 120.800 C 146.400 121.240,146.190 121.600,145.933 121.600 C 145.677 121.600,145.576 121.710,145.711 121.844 C 145.845 121.978,145.612 122.727,145.193 123.508 C 144.775 124.289,144.544 125.124,144.680 125.364 C 144.817 125.604,144.782 125.668,144.604 125.506 C 144.209 125.149,143.113 127.136,143.426 127.642 C 143.548 127.839,143.457 128.000,143.224 128.000 C 142.991 128.000,142.800 128.345,142.800 128.767 C 142.800 129.188,142.665 129.593,142.500 129.667 C 141.978 129.899,140.390 133.260,140.623 133.638 C 140.747 133.837,140.402 134.000,139.857 134.000 C 139.312 134.000,138.799 134.204,138.716 134.453 C 138.620 134.739,137.573 134.885,135.882 134.849 C 134.301 134.814,133.200 134.957,133.200 135.195 C 133.200 135.427,132.087 135.600,130.600 135.600 C 129.133 135.600,128.000 135.774,128.000 136.000 C 128.000 136.229,126.800 136.400,125.200 136.400 C 123.600 136.400,122.400 136.571,122.400 136.800 C 122.400 137.025,121.275 137.200,119.824 137.200 C 118.407 137.200,117.136 137.380,117.000 137.600 C 116.864 137.820,115.809 138.000,114.656 138.000 C 113.503 138.000,112.386 138.174,112.173 138.387 C 111.960 138.600,110.748 138.807,109.478 138.849 C 108.209 138.890,107.076 139.076,106.962 139.262 C 106.847 139.448,105.503 139.600,103.976 139.600 C 102.392 139.600,101.200 139.772,101.200 140.000 C 101.200 140.229,99.992 140.400,98.376 140.400 C 96.823 140.400,95.650 140.558,95.769 140.750 C 95.888 140.943,94.504 141.209,92.693 141.341 C 87.578 141.715,84.800 142.074,84.800 142.363 C 84.800 142.508,84.215 142.613,83.500 142.596 C 82.785 142.579,81.750 142.830,81.200 143.153 C 80.276 143.695,80.242 143.689,80.749 143.070 C 81.389 142.289,80.721 142.150,79.929 142.900 C 79.633 143.180,78.430 143.394,77.200 143.386 C 75.990 143.378,74.730 143.495,74.400 143.646 C 73.849 143.897,72.788 144.031,66.400 144.655 C 65.190 144.774,64.029 145.035,63.820 145.235 C 63.611 145.436,62.306 145.600,60.920 145.600 C 59.507 145.600,58.400 145.776,58.400 146.000 C 58.400 146.229,57.200 146.400,55.600 146.400 C 54.000 146.400,52.800 146.571,52.800 146.800 C 52.800 147.024,51.692 147.200,50.275 147.200 C 48.288 147.200,47.565 147.373,46.875 148.016 C 46.394 148.464,46.000 148.644,46.000 148.416 C 46.000 148.184,45.117 148.000,44.000 148.000 C 42.900 148.000,42.000 148.180,42.000 148.400 C 42.000 148.624,40.893 148.800,39.480 148.800 C 38.094 148.800,36.756 149.004,36.507 149.253 C 36.257 149.503,35.051 149.683,33.827 149.655 C 32.582 149.626,31.600 149.779,31.600 150.002 C 31.600 150.221,31.060 150.400,30.400 150.400 C 29.740 150.400,29.200 150.536,29.200 150.702 C 29.200 150.869,28.622 151.260,27.916 151.573 C 26.343 152.269,24.000 154.551,24.000 155.387 C 24.000 155.724,23.820 156.000,23.600 156.000 C 23.380 156.000,23.200 156.360,23.200 156.800 C 23.200 157.240,23.020 157.600,22.800 157.600 C 22.580 157.600,22.400 158.039,22.400 158.576 C 22.400 159.113,22.220 159.664,22.000 159.800 C 21.474 160.125,21.474 166.000,22.000 166.000 C 22.220 166.000,22.400 166.540,22.400 167.200 C 22.400 167.860,22.580 168.400,22.800 168.400 C 23.020 168.400,23.200 168.760,23.200 169.200 C 23.200 169.640,23.380 170.000,23.600 170.000 C 23.820 170.000,24.000 170.279,24.000 170.620 C 24.000 171.696,40.864 188.000,41.977 188.000 C 42.235 188.000,42.367 188.135,42.269 188.300 C 42.041 188.682,57.068 203.598,57.373 203.293 C 57.498 203.169,57.600 203.283,57.600 203.548 C 57.600 204.264,64.757 211.274,65.205 210.997 C 65.417 210.866,65.514 210.993,65.420 211.279 C 65.326 211.566,66.515 212.880,68.063 214.200 C 69.611 215.520,72.200 217.905,73.816 219.500 C 75.432 221.095,76.945 222.400,77.177 222.400 C 77.410 222.400,77.555 222.564,77.500 222.764 C 77.347 223.321,84.342 229.996,85.118 230.032 C 85.498 230.049,85.588 230.149,85.322 230.258 C 85.050 230.368,86.654 232.263,89.033 234.643 C 91.489 237.098,93.410 238.718,93.674 238.555 C 93.939 238.390,94.013 238.456,93.853 238.714 C 93.703 238.957,94.495 240.010,95.629 241.076 C 100.688 245.834,102.220 247.200,102.500 247.200 C 102.954 247.200,102.860 251.916,102.400 252.200 C 102.180 252.336,102.000 253.427,102.000 254.624 C 102.000 255.821,101.820 256.800,101.600 256.800 C 101.380 256.800,101.200 257.779,101.200 258.976 C 101.200 260.173,101.020 261.264,100.800 261.400 C 100.580 261.536,100.400 262.627,100.400 263.824 C 100.400 265.021,100.220 266.000,100.000 266.000 C 99.778 266.000,99.600 267.067,99.600 268.400 C 99.600 269.720,99.437 270.800,99.237 270.800 C 99.037 270.800,98.772 271.745,98.646 272.900 C 98.038 278.504,97.891 279.433,97.540 279.863 C 97.333 280.118,97.206 281.048,97.258 281.930 C 97.310 282.812,97.129 283.803,96.856 284.132 C 96.579 284.466,96.402 285.556,96.456 286.595 C 96.509 287.620,96.372 288.580,96.152 288.729 C 95.932 288.878,95.704 289.900,95.645 291.000 C 95.586 292.100,95.372 293.171,95.169 293.380 C 94.966 293.589,94.800 294.703,94.800 295.856 C 94.800 297.009,94.620 298.064,94.400 298.200 C 94.180 298.336,94.000 299.326,94.000 300.400 C 94.000 301.474,93.855 302.442,93.678 302.552 C 93.501 302.661,93.376 303.617,93.400 304.675 C 93.424 305.734,93.266 306.721,93.048 306.869 C 92.831 307.017,92.612 307.917,92.561 308.869 C 92.511 309.821,92.265 311.680,92.015 313.000 C 91.765 314.320,91.458 316.615,91.335 318.100 C 91.211 319.585,90.950 320.800,90.755 320.800 C 90.560 320.800,90.400 321.880,90.400 323.200 C 90.400 324.533,90.222 325.600,90.000 325.600 C 89.780 325.600,89.600 326.489,89.600 327.576 C 89.600 328.663,89.420 329.664,89.200 329.800 C 88.980 329.936,88.800 330.926,88.800 332.000 C 88.800 333.074,88.620 334.064,88.400 334.200 C 88.180 334.336,88.000 335.427,88.000 336.624 C 88.000 337.821,87.820 338.800,87.600 338.800 C 87.380 338.800,87.200 339.779,87.200 340.976 C 87.200 342.173,87.020 343.264,86.800 343.400 C 86.580 343.536,86.400 344.627,86.400 345.824 C 86.400 347.021,86.220 348.000,86.000 348.000 C 85.780 348.000,85.600 348.979,85.600 350.176 C 85.600 351.373,85.420 352.464,85.200 352.600 C 84.668 352.929,84.668 361.200,85.200 361.200 C 85.420 361.200,85.600 361.560,85.600 362.000 C 85.600 362.440,85.780 362.800,86.000 362.800 C 86.220 362.800,86.400 363.160,86.400 363.600 C 86.400 364.040,86.580 364.400,86.800 364.400 C 87.020 364.400,87.200 364.625,87.200 364.900 C 87.201 365.628,88.996 367.600,89.658 367.600 C 89.969 367.600,90.483 367.960,90.800 368.400 C 91.117 368.840,91.697 369.200,92.088 369.200 C 92.480 369.200,92.800 369.382,92.800 369.605 C 92.800 369.858,94.672 369.995,97.800 369.973 C 100.551 369.953,102.800 369.771,102.800 369.568 C 102.800 369.366,103.115 369.196,103.500 369.191 C 103.885 369.186,104.650 368.830,105.200 368.400 C 105.750 367.970,106.515 367.614,106.900 367.609 C 107.285 367.604,107.600 367.420,107.600 367.200 C 107.600 366.980,107.870 366.800,108.200 366.800 C 108.530 366.800,108.800 366.620,108.800 366.400 C 108.800 366.180,109.160 366.000,109.600 366.000 C 110.040 366.000,110.400 365.820,110.400 365.600 C 110.400 365.380,110.760 365.200,111.200 365.200 C 111.640 365.200,112.000 365.020,112.000 364.800 C 112.000 364.580,112.360 364.400,112.800 364.400 C 113.240 364.400,113.600 364.220,113.600 364.000 C 113.600 363.780,113.960 363.600,114.400 363.600 C 114.840 363.600,115.200 363.420,115.200 363.200 C 115.200 362.980,115.560 362.800,116.000 362.800 C 116.440 362.800,116.800 362.620,116.800 362.400 C 116.800 362.180,117.160 362.000,117.600 362.000 C 118.040 362.000,118.400 361.841,118.400 361.647 C 118.400 361.452,118.715 361.193,119.100 361.071 C 119.859 360.831,122.076 359.548,122.400 359.162 C 122.510 359.030,123.117 358.797,123.748 358.642 C 124.380 358.487,125.159 358.098,125.481 357.777 C 125.802 357.455,126.215 357.285,126.398 357.399 C 126.582 357.512,126.792 357.469,126.866 357.302 C 126.976 357.054,132.693 353.982,136.297 352.235 C 136.790 351.996,137.195 351.665,137.197 351.500 C 137.199 351.335,137.560 351.200,138.000 351.200 C 138.554 351.200,138.810 350.923,138.832 350.300 C 138.849 349.805,138.954 349.625,139.065 349.900 C 139.304 350.494,140.400 350.576,140.400 350.000 C 140.400 349.780,140.670 349.600,141.000 349.600 C 141.330 349.600,141.600 349.420,141.600 349.200 C 141.600 348.980,141.960 348.800,142.400 348.800 C 142.840 348.800,143.200 348.620,143.200 348.400 C 143.200 348.180,143.560 348.000,144.000 348.000 C 144.440 348.000,144.800 347.820,144.800 347.600 C 144.800 347.380,145.160 347.200,145.600 347.200 C 146.040 347.200,146.400 347.020,146.400 346.800 C 146.400 346.580,146.760 346.400,147.200 346.400 C 147.640 346.400,148.000 346.220,148.000 346.000 C 148.000 345.780,148.345 345.600,148.767 345.600 C 149.188 345.600,149.593 345.465,149.667 345.300 C 149.834 344.924,151.964 343.625,152.900 343.329 C 153.285 343.207,153.600 342.948,153.600 342.753 C 153.600 342.559,153.960 342.400,154.400 342.400 C 154.840 342.400,155.200 342.220,155.200 342.000 C 155.200 341.780,155.524 341.600,155.920 341.600 C 156.316 341.600,156.856 341.384,157.120 341.120 C 157.384 340.856,157.600 340.788,157.600 340.969 C 157.600 341.150,157.841 341.098,158.135 340.854 C 158.593 340.474,162.995 338.087,165.897 336.646 C 166.390 336.401,166.795 336.065,166.797 335.900 C 166.799 335.735,167.160 335.600,167.600 335.600 C 168.040 335.600,168.400 335.420,168.400 335.200 C 168.400 334.980,168.760 334.800,169.200 334.800 C 169.640 334.800,170.000 334.620,170.000 334.400 C 170.000 334.180,170.360 334.000,170.800 334.000 C 171.240 334.000,171.600 333.820,171.600 333.600 C 171.600 333.380,171.960 333.200,172.400 333.200 C 172.840 333.200,173.200 333.054,173.200 332.875 C 173.200 332.696,173.830 332.302,174.600 332.000 C 175.370 331.698,176.000 331.304,176.000 331.125 C 176.000 330.946,176.360 330.800,176.800 330.800 C 177.240 330.800,177.600 330.620,177.600 330.400 C 177.600 330.180,177.945 330.000,178.367 330.000 C 178.788 330.000,179.193 329.865,179.267 329.700 C 179.434 329.324,181.564 328.025,182.500 327.729 C 182.885 327.607,183.200 327.348,183.200 327.153 C 183.200 326.959,183.560 326.800,184.000 326.800 C 184.440 326.800,184.800 326.620,184.800 326.400 C 184.800 326.180,185.160 326.000,185.600 326.000 C 186.040 326.000,186.400 325.840,186.400 325.645 C 186.400 325.449,187.017 325.173,187.771 325.032 C 188.525 324.890,189.200 324.645,189.271 324.487 C 189.342 324.329,190.492 323.645,191.827 322.967 C 196.145 320.772,197.793 319.810,198.125 319.292 C 198.303 319.012,198.638 318.900,198.869 319.043 C 199.100 319.186,199.463 319.054,199.675 318.751 C 199.973 318.325,200.107 318.313,200.264 318.700 C 200.375 318.975,200.812 319.200,201.233 319.200 C 201.655 319.200,202.000 319.380,202.000 319.600 C 202.000 319.820,202.360 320.000,202.800 320.000 C 203.240 320.000,203.601 320.135,203.603 320.300 C 203.605 320.465,204.010 320.795,204.503 321.034 C 204.996 321.272,206.989 322.307,208.931 323.334 C 210.874 324.360,212.719 325.200,213.031 325.200 C 213.344 325.200,213.600 325.380,213.600 325.600 C 213.600 325.820,213.960 326.000,214.400 326.000 C 214.840 326.000,215.200 326.180,215.200 326.400 C 215.200 326.620,215.560 326.800,216.000 326.800 C 216.440 326.800,216.800 326.980,216.800 327.200 C 216.800 327.420,217.078 327.600,217.417 327.600 C 217.756 327.600,218.420 327.960,218.892 328.400 C 219.364 328.840,219.987 329.200,220.275 329.200 C 220.564 329.200,220.800 329.380,220.800 329.600 C 220.800 329.820,221.160 330.000,221.600 330.000 C 222.040 330.000,222.400 330.180,222.400 330.400 C 222.400 330.620,222.760 330.800,223.200 330.800 C 223.640 330.800,224.000 330.980,224.000 331.200 C 224.000 331.420,224.360 331.600,224.800 331.600 C 225.240 331.600,225.600 331.780,225.600 332.000 C 225.600 332.220,225.960 332.400,226.400 332.400 C 226.840 332.400,227.200 332.580,227.200 332.800 C 227.200 333.020,227.470 333.200,227.800 333.200 C 228.130 333.200,228.400 333.401,228.400 333.647 C 228.400 333.896,228.753 334.001,229.200 333.884 C 229.720 333.748,230.000 333.872,230.000 334.237 C 230.000 334.547,230.360 334.800,230.800 334.800 C 231.240 334.800,231.600 334.980,231.600 335.200 C 231.600 335.420,231.960 335.600,232.400 335.600 C 232.840 335.600,233.201 335.735,233.203 335.900 C 233.205 336.065,233.610 336.394,234.103 336.631 C 234.596 336.868,236.942 338.083,239.316 339.331 C 241.690 340.579,243.895 341.600,244.216 341.600 C 244.537 341.600,244.800 341.780,244.800 342.000 C 244.800 342.220,245.160 342.400,245.600 342.400 C 246.040 342.400,246.400 342.580,246.400 342.800 C 246.400 343.020,246.760 343.200,247.200 343.200 C 247.640 343.200,248.000 343.380,248.000 343.600 C 248.000 343.820,248.270 344.000,248.600 344.000 C 248.930 344.000,249.200 344.146,249.200 344.325 C 249.200 344.504,249.830 344.898,250.600 345.200 C 251.370 345.502,252.000 345.896,252.000 346.075 C 252.000 346.254,252.360 346.400,252.800 346.400 C 253.240 346.400,253.600 346.599,253.600 346.843 C 253.600 347.086,253.877 347.179,254.215 347.050 C 254.565 346.915,254.928 347.069,255.058 347.407 C 255.183 347.733,255.626 348.000,256.043 348.000 C 256.459 348.000,256.800 348.180,256.800 348.400 C 256.800 348.620,257.160 348.800,257.600 348.800 C 258.040 348.800,258.400 348.980,258.400 349.200 C 258.400 349.420,258.760 349.600,259.200 349.600 C 259.640 349.600,260.000 349.780,260.000 350.000 C 260.000 350.220,260.270 350.400,260.600 350.400 C 260.930 350.400,261.200 350.580,261.200 350.800 C 261.200 351.020,261.560 351.200,262.000 351.200 C 262.440 351.200,262.800 351.380,262.800 351.600 C 262.800 351.820,263.145 352.000,263.567 352.000 C 263.988 352.000,264.393 352.135,264.467 352.300 C 264.640 352.690,266.288 353.638,270.000 355.482 C 271.650 356.302,273.060 357.114,273.133 357.286 C 273.207 357.459,273.612 357.600,274.033 357.600 C 274.455 357.600,274.800 357.774,274.800 357.987 C 274.800 358.201,275.070 358.271,275.400 358.145 C 275.730 358.018,276.000 358.114,276.000 358.357 C 276.000 358.601,276.360 358.800,276.800 358.800 C 277.240 358.800,277.600 358.946,277.600 359.125 C 277.600 359.304,278.230 359.698,279.000 360.000 C 279.770 360.302,280.400 360.662,280.400 360.800 C 280.400 360.938,281.030 361.298,281.800 361.600 C 282.570 361.902,283.200 362.296,283.200 362.475 C 283.200 362.654,283.560 362.800,284.000 362.800 C 284.440 362.800,284.800 362.980,284.800 363.200 C 284.800 363.420,285.160 363.600,285.600 363.600 C 286.040 363.600,286.400 363.780,286.400 364.000 C 286.400 364.220,286.760 364.400,287.200 364.400 C 287.640 364.400,288.000 364.580,288.000 364.800 C 288.000 365.020,288.360 365.200,288.800 365.200 C 289.240 365.200,289.600 365.380,289.600 365.600 C 289.600 365.820,290.061 366.000,290.624 366.000 C 291.187 366.000,291.560 366.142,291.452 366.315 C 291.345 366.488,291.830 366.879,292.529 367.183 C 293.228 367.487,293.890 367.840,294.000 367.968 C 294.406 368.440,296.008 369.200,296.595 369.200 C 296.928 369.200,297.200 369.380,297.200 369.600 C 297.200 369.820,298.100 370.000,299.200 370.000 C 300.300 370.000,301.200 370.180,301.200 370.400 C 301.200 370.620,301.549 370.800,301.976 370.800 C 302.403 370.800,302.864 370.620,303.000 370.400 C 303.136 370.180,304.036 370.000,305.000 370.000 C 305.964 370.000,306.864 369.820,307.000 369.600 C 307.136 369.380,307.597 369.200,308.024 369.200 C 308.451 369.200,308.800 369.050,308.800 368.868 C 308.800 368.685,309.295 368.280,309.900 367.968 C 311.397 367.195,312.800 365.768,312.800 365.018 C 312.800 364.678,312.935 364.399,313.100 364.397 C 313.459 364.393,314.400 362.456,314.400 361.720 C 314.400 361.434,314.580 361.200,314.800 361.200 C 315.041 361.200,315.200 359.541,315.200 357.024 C 315.200 354.671,315.025 352.739,314.800 352.600 C 314.580 352.464,314.400 351.373,314.400 350.176 C 314.400 348.979,314.220 348.000,314.000 348.000 C 313.780 348.000,313.600 347.021,313.600 345.824 C 313.600 344.627,313.420 343.536,313.200 343.400 C 312.980 343.264,312.800 342.173,312.800 340.976 C 312.800 339.779,312.620 338.800,312.400 338.800 C 312.178 338.800,312.000 337.733,312.000 336.400 C 312.000 335.067,311.822 334.000,311.600 334.000 C 311.380 334.000,311.200 333.010,311.200 331.800 C 311.200 330.590,311.020 329.600,310.800 329.600 C 310.580 329.600,310.400 328.610,310.400 327.400 C 310.400 326.190,310.220 325.200,310.000 325.200 C 309.780 325.200,309.600 324.210,309.600 323.000 C 309.600 321.790,309.447 320.800,309.259 320.800 C 309.072 320.800,308.798 319.093,308.651 317.006 C 308.505 314.919,308.208 312.747,307.992 312.180 C 307.777 311.612,307.600 310.530,307.600 309.774 C 307.600 308.945,307.402 308.398,307.100 308.394 C 306.718 308.389,306.713 308.316,307.079 308.083 C 307.395 307.883,307.431 307.578,307.185 307.189 C 306.980 306.865,306.809 305.756,306.806 304.724 C 306.803 303.692,306.620 302.736,306.400 302.600 C 306.180 302.464,306.000 301.543,306.000 300.553 C 306.000 299.563,305.859 298.840,305.686 298.947 C 305.343 299.159,305.229 298.349,305.218 295.647 C 305.214 294.683,304.994 293.634,304.730 293.316 C 304.462 292.993,304.296 291.868,304.355 290.769 C 304.419 289.567,304.292 288.800,304.030 288.800 C 303.777 288.800,303.600 287.924,303.600 286.680 C 303.600 285.514,303.385 284.345,303.123 284.083 C 302.848 283.808,302.692 282.760,302.753 281.603 C 302.818 280.376,302.693 279.600,302.430 279.600 C 302.176 279.600,302.000 278.708,302.000 277.424 C 302.000 276.227,301.820 275.136,301.600 275.000 C 301.380 274.864,301.200 273.874,301.200 272.800 C 301.200 271.726,301.020 270.736,300.800 270.600 C 300.580 270.464,300.400 269.373,300.400 268.176 C 300.400 266.979,300.220 266.000,300.000 266.000 C 299.780 266.000,299.600 265.021,299.600 263.824 C 299.600 262.627,299.420 261.536,299.200 261.400 C 298.980 261.264,298.800 260.173,298.800 258.976 C 298.800 257.779,298.620 256.800,298.400 256.800 C 298.178 256.800,298.000 255.733,298.000 254.400 C 298.000 253.067,297.822 252.000,297.600 252.000 C 296.243 252.000,297.225 247.676,298.900 246.276 C 302.388 243.360,302.874 242.843,302.575 242.360 C 302.384 242.050,302.445 241.980,302.746 242.166 C 303.255 242.481,316.000 229.950,316.000 229.134 C 316.000 228.877,316.111 228.778,316.248 228.914 C 316.384 229.051,318.969 226.696,321.992 223.681 C 325.016 220.666,328.222 217.578,329.117 216.818 C 330.013 216.057,330.640 215.264,330.511 215.056 C 330.382 214.847,330.476 214.799,330.719 214.950 C 330.977 215.109,336.325 210.089,343.544 202.912 C 350.354 196.140,357.099 189.491,358.533 188.136 C 359.966 186.781,361.018 185.537,360.870 185.372 C 360.721 185.207,360.799 185.185,361.041 185.323 C 361.540 185.608,368.506 179.040,368.118 178.651 C 367.980 178.513,368.068 178.400,368.314 178.400 C 369.050 178.400,376.000 171.422,376.000 170.683 C 376.000 170.307,376.180 170.000,376.400 170.000 C 376.620 170.000,376.800 169.640,376.800 169.200 C 376.800 168.760,376.980 168.400,377.200 168.400 C 377.420 168.400,377.600 167.860,377.600 167.200 C 377.600 166.540,377.760 166.000,377.956 166.000 C 378.452 166.000,378.494 160.106,378.001 159.801 C 377.780 159.664,377.600 159.103,377.600 158.553 C 377.600 157.988,377.426 157.660,377.200 157.800 C 376.972 157.941,376.800 157.596,376.800 157.000 C 376.800 156.404,376.628 156.059,376.400 156.200 C 376.180 156.336,376.000 156.059,376.000 155.584 C 376.000 154.695,373.624 152.000,372.840 152.000 C 372.598 152.000,372.400 151.820,372.400 151.600 C 372.400 151.380,372.040 151.200,371.600 151.200 C 371.160 151.200,370.800 151.020,370.800 150.800 C 370.800 150.580,370.260 150.400,369.600 150.400 C 368.940 150.400,368.400 150.220,368.400 150.000 C 368.400 149.778,367.333 149.600,366.000 149.600 C 364.680 149.600,363.600 149.429,363.600 149.221 C 363.600 149.012,362.511 148.847,361.180 148.853 C 359.849 148.860,358.519 148.665,358.225 148.421 C 357.931 148.177,356.644 148.011,355.366 148.053 C 353.897 148.101,352.986 147.958,352.888 147.664 C 352.793 147.378,351.778 147.200,350.247 147.200 C 348.879 147.200,347.563 147.003,347.322 146.762 C 347.068 146.508,345.875 146.382,344.479 146.462 C 343.156 146.538,342.155 146.470,342.253 146.312 C 342.564 145.812,340.451 145.497,338.082 145.689 C 336.827 145.791,336.026 145.798,336.302 145.703 C 337.469 145.305,336.181 144.800,334.000 144.800 C 332.706 144.800,331.536 144.620,331.400 144.400 C 331.264 144.180,330.004 144.000,328.600 144.000 C 327.196 144.000,325.931 143.811,325.788 143.581 C 325.608 143.290,325.375 143.289,325.028 143.577 C 324.752 143.806,324.405 143.872,324.257 143.724 C 324.109 143.576,323.406 143.425,322.694 143.388 C 321.521 143.328,320.420 143.020,319.438 142.477 C 319.239 142.366,319.216 142.502,319.386 142.778 C 319.618 143.153,319.507 143.189,318.948 142.920 C 318.537 142.722,317.525 142.588,316.700 142.623 C 315.875 142.657,315.200 142.556,315.200 142.398 C 315.200 142.121,313.090 141.827,307.600 141.337 C 306.170 141.209,304.820 140.972,304.600 140.810 C 304.380 140.649,303.120 140.480,301.800 140.436 C 300.480 140.392,299.340 140.185,299.267 139.978 C 299.193 139.770,298.014 139.600,296.647 139.600 C 295.200 139.600,293.952 139.392,293.663 139.103 C 293.268 138.708,293.090 138.728,292.789 139.203 C 292.538 139.602,292.410 139.634,292.406 139.300 C 292.402 138.967,291.730 138.800,290.400 138.800 C 289.300 138.800,288.400 138.620,288.400 138.400 C 288.400 138.174,287.267 138.000,285.800 138.000 C 284.333 138.000,283.200 137.826,283.200 137.600 C 283.200 137.371,282.000 137.200,280.400 137.200 C 278.800 137.200,277.600 137.029,277.600 136.800 C 277.600 136.575,276.475 136.400,275.024 136.400 C 273.607 136.400,272.336 136.220,272.200 136.000 C 272.064 135.780,270.793 135.600,269.376 135.600 C 267.925 135.600,266.800 135.425,266.800 135.200 C 266.800 134.971,265.600 134.800,264.000 134.800 C 262.460 134.800,261.200 134.633,261.200 134.428 C 261.200 134.223,260.795 133.998,260.300 133.928 C 259.805 133.858,259.385 133.620,259.366 133.400 C 259.312 132.744,258.471 130.832,256.376 126.600 C 255.288 124.400,254.398 122.375,254.399 122.100 C 254.399 121.825,254.220 121.600,254.000 121.600 C 253.780 121.600,253.600 121.240,253.600 120.800 C 253.600 120.360,253.420 120.000,253.200 120.000 C 252.980 120.000,252.800 119.640,252.800 119.200 C 252.800 118.760,252.620 118.400,252.400 118.400 C 252.180 118.400,252.000 118.040,252.000 117.600 C 252.000 117.160,251.820 116.800,251.600 116.800 C 251.380 116.800,251.200 116.440,251.200 116.000 C 251.200 115.560,251.020 115.200,250.800 115.200 C 250.580 115.200,250.400 114.840,250.400 114.400 C 250.400 113.960,250.220 113.600,250.000 113.600 C 249.780 113.600,249.600 113.240,249.600 112.800 C 249.600 112.360,249.454 112.000,249.275 112.000 C 249.096 112.000,248.705 111.377,248.407 110.617 C 248.108 109.856,247.627 109.143,247.339 109.032 C 247.050 108.921,246.920 108.553,247.050 108.215 C 247.179 107.877,247.086 107.600,246.843 107.600 C 246.599 107.600,246.400 107.240,246.400 106.800 C 246.400 106.360,246.220 106.000,246.000 106.000 C 245.780 106.000,245.600 105.640,245.600 105.200 C 245.600 104.760,245.420 104.400,245.200 104.400 C 244.980 104.400,244.800 104.040,244.800 103.600 C 244.800 103.160,244.620 102.800,244.400 102.800 C 244.180 102.800,244.000 102.440,244.000 102.000 C 244.000 101.560,243.820 101.200,243.600 101.200 C 243.380 101.200,243.200 100.840,243.200 100.400 C 243.200 99.960,243.020 99.600,242.800 99.600 C 242.580 99.600,242.400 99.240,242.400 98.800 C 242.400 98.360,242.220 98.000,242.000 98.000 C 241.780 98.000,241.600 97.712,241.600 97.360 C 241.600 96.565,240.408 93.983,239.711 93.268 C 239.426 92.975,239.295 92.570,239.420 92.368 C 239.545 92.165,239.457 92.000,239.224 92.000 C 238.991 92.000,238.800 91.640,238.800 91.200 C 238.800 90.760,238.620 90.400,238.400 90.400 C 238.180 90.400,238.000 90.040,238.000 89.600 C 238.000 89.160,237.820 88.800,237.600 88.800 C 237.380 88.800,237.200 88.440,237.200 88.000 C 237.200 87.560,237.020 87.200,236.800 87.200 C 236.580 87.200,236.400 86.840,236.400 86.400 C 236.400 85.960,236.249 85.600,236.064 85.600 C 235.685 85.600,234.619 83.573,234.737 83.079 C 234.780 82.902,234.539 82.482,234.203 82.146 C 233.868 81.810,233.695 81.370,233.820 81.168 C 233.945 80.965,233.857 80.800,233.624 80.800 C 233.391 80.800,233.200 80.440,233.200 80.000 C 233.200 79.560,233.020 79.200,232.800 79.200 C 232.580 79.200,232.400 78.970,232.400 78.689 C 232.400 78.408,231.860 77.137,231.200 75.865 C 230.540 74.593,230.000 73.293,230.000 72.976 C 230.000 72.659,229.820 72.400,229.600 72.400 C 229.380 72.400,229.200 72.040,229.200 71.600 C 229.200 71.160,229.020 70.800,228.800 70.800 C 228.580 70.800,228.400 70.440,228.400 70.000 C 228.400 69.560,228.220 69.200,228.000 69.200 C 227.780 69.200,227.600 68.840,227.600 68.400 C 227.600 67.960,227.420 67.600,227.200 67.600 C 226.980 67.600,226.800 67.240,226.800 66.800 C 226.800 66.360,226.620 66.000,226.400 66.000 C 226.180 66.000,226.000 65.640,226.000 65.200 C 226.000 64.760,225.820 64.400,225.600 64.400 C 225.380 64.400,225.200 64.040,225.200 63.600 C 225.200 63.160,224.990 62.800,224.733 62.800 C 224.477 62.800,224.382 62.685,224.523 62.543 C 224.664 62.402,224.244 61.311,223.590 60.119 C 222.935 58.926,222.400 57.692,222.400 57.375 C 222.400 57.059,222.220 56.800,222.000 56.800 C 221.780 56.800,221.600 56.440,221.600 56.000 C 221.600 55.560,221.420 55.200,221.200 55.200 C 220.980 55.200,220.800 54.840,220.800 54.400 C 220.800 53.960,220.620 53.600,220.400 53.600 C 220.180 53.600,220.000 53.240,220.000 52.800 C 220.000 52.360,219.820 52.000,219.600 52.000 C 219.380 52.000,219.200 51.640,219.200 51.200 C 219.200 50.760,219.020 50.400,218.800 50.400 C 218.580 50.400,218.400 50.040,218.400 49.600 C 218.400 49.160,218.220 48.800,218.000 48.800 C 217.780 48.800,217.600 48.440,217.600 48.000 C 217.600 47.560,217.420 47.200,217.200 47.200 C 216.980 47.200,216.800 46.840,216.800 46.400 C 216.800 45.960,216.620 45.600,216.400 45.600 C 216.180 45.600,216.000 45.240,216.000 44.800 C 216.000 44.360,215.854 44.000,215.675 44.000 C 215.496 44.000,215.102 43.370,214.800 42.600 C 214.498 41.830,214.104 41.200,213.925 41.200 C 213.746 41.200,213.600 40.840,213.600 40.400 C 213.600 39.960,213.420 39.600,213.200 39.600 C 212.980 39.600,212.800 39.240,212.800 38.800 C 212.800 38.360,212.620 38.000,212.400 38.000 C 212.180 38.000,212.000 37.640,212.000 37.200 C 212.000 36.760,211.820 36.400,211.600 36.400 C 211.380 36.400,211.200 36.112,211.200 35.760 C 211.200 34.921,208.840 32.728,208.298 33.063 C 208.066 33.206,207.993 33.135,208.135 32.905 C 208.427 32.432,205.242 30.800,204.028 30.800 C 203.599 30.800,203.136 30.620,203.000 30.400 C 202.684 29.888,197.992 29.888,197.200 30.400 " stroke="none" fill="#cc5474" fill-rule="evenodd"></path><path id="path1" d="" stroke="none" fill="#cc547c" fill-rule="evenodd"></path></g></svg>