<?xml version="1.0" standalone="no"?>
<!DOCTYPE svg PUBLIC "-//W3C//DTD SVG 20010904//EN"
 "http://www.w3.org/TR/2001/REC-SVG-20010904/DTD/svg10.dtd">
<svg id="svg" xmlns="http://www.w3.org/2000/svg" xmlns:xlink="http://www.w3.org/1999/xlink" width="20" height="20" viewBox="0, 0, 400,400"><g id="svgg"><path id="path0" d="M158.974 1.391 C 144.634 6.403,139.601 13.066,131.571 37.668 L 128.584 46.821 89.097 47.043 L 49.609 47.266 44.141 49.938 C 36.985 53.434,30.778 59.641,27.281 66.797 L 24.609 72.266 24.366 91.435 C 24.093 112.954,24.253 113.632,30.209 116.120 C 35.043 118.140,367.394 117.670,370.681 115.639 C 375.643 112.572,375.935 111.101,375.648 90.625 L 375.391 72.266 372.719 66.797 C 369.222 59.641,363.015 53.434,355.859 49.938 L 350.391 47.266 310.908 47.043 L 271.426 46.821 267.659 35.325 C 261.033 15.104,256.264 8.353,244.756 2.902 L 239.453 0.391 201.172 0.206 C 166.413 0.039,162.530 0.148,158.974 1.391 M234.767 25.115 C 236.058 25.823,237.732 27.087,238.489 27.923 C 239.661 29.218,245.313 44.395,245.313 46.247 C 245.313 46.593,224.922 46.875,200.000 46.875 C 175.078 46.875,154.688 46.593,154.688 46.247 C 154.688 44.401,160.337 29.220,161.504 27.931 C 165.326 23.708,166.915 23.539,201.563 23.692 C 228.584 23.811,232.714 23.988,234.767 25.115 M50.385 145.898 C 50.626 147.939,54.862 198.828,59.797 258.984 C 64.732 319.141,69.125 370.085,69.560 372.195 C 72.120 384.631,81.274 394.858,93.152 398.555 C 100.640 400.885,299.625 400.789,307.193 398.451 C 318.758 394.879,327.898 384.556,330.439 372.195 C 330.873 370.085,335.267 319.141,340.205 258.984 C 345.142 198.828,349.378 147.939,349.618 145.898 L 350.054 142.188 200.000 142.188 L 49.946 142.188 50.385 145.898 M135.704 167.937 C 141.396 171.408,141.016 164.856,141.016 259.375 C 141.016 339.501,140.939 344.281,139.611 346.714 C 135.508 354.229,123.867 354.229,119.764 346.714 C 117.584 342.721,117.584 176.029,119.764 172.036 C 121.688 168.513,125.395 166.412,129.688 166.412 C 131.799 166.412,134.202 167.021,135.704 167.937 M206.017 167.937 C 211.709 171.408,211.328 164.856,211.328 259.375 C 211.328 339.501,211.251 344.281,209.923 346.714 C 205.820 354.229,194.180 354.229,190.077 346.714 C 187.897 342.721,187.897 176.029,190.077 172.036 C 192.000 168.513,195.707 166.412,200.000 166.412 C 202.112 166.412,204.514 167.021,206.017 167.937 M275.910 167.773 C 277.188 168.525,279.000 170.371,279.937 171.875 L 281.641 174.609 281.641 259.375 C 281.641 339.501,281.564 344.281,280.236 346.714 C 276.133 354.229,264.492 354.229,260.389 346.714 C 258.209 342.721,258.209 176.029,260.389 172.036 C 263.236 166.822,270.775 164.751,275.910 167.773 " stroke="none" fill="#000000" fill-rule="evenodd"></path></g></svg>